<?xml version="1.0" encoding="us-ascii" standalone="no"?><svg xmlns="http://www.w3.org/2000/svg" xmlns:xlink="http://www.w3.org/1999/xlink" contentStyleType="text/css" height="1144px" preserveAspectRatio="none" style="width:4283px;height:1144px;background:#FFFFFF;" version="1.1" viewBox="0 0 4283 1144" width="4283px" zoomAndPan="magnify"><defs/><g><!--class GlobalCorsConfig--><g id="elem_GlobalCorsConfig"><rect codeLine="3" fill="#F1F1F1" height="67.1201" id="GlobalCorsConfig" rx="2.5" ry="2.5" style="stroke:#181818;stroke-width:0.5;" width="161" x="32" y="45.5"/><ellipse cx="54.65" cy="61.5" fill="#ADD1B2" rx="11" ry="11" style="stroke:#181818;stroke-width:1.0;"/><path d="M53.2281,66.8594 Q51.3688,66.8594 50.275,65.4688 Q49.1813,64.0781 49.1813,61.0938 Q49.1813,58.5625 50.3453,56.9063 Q51.5094,55.25 53.4938,55.25 Q54.9625,55.25 55.4313,55.375 Q55.9,55.5781 55.9,55.5781 Q55.9,55.5781 55.9,55.5078 Q55.9,55.4375 56.5094,54.5156 L57.5563,58.1719 L56.2281,58.5781 Q55.7594,57.0313 55.0953,56.3672 Q54.4313,55.7031 53.3688,55.7031 Q52.9781,55.7031 52.2125,57.2344 Q51.4469,58.7656 51.4469,61.0156 Q51.4469,63.4844 52.1109,64.875 Q52.775,66.2656 53.3063,66.2656 Q54.3688,66.2656 55.1266,65.5 Q55.8844,64.7344 56.2281,63.0781 L57.5563,63.6719 Q57.2281,65.0781 56.3297,65.9688 Q55.4313,66.8594 53.2281,66.8594 Z " fill="#000000"/><text fill="#000000" font-family="sans-serif" font-size="14" lengthAdjust="spacing" textLength="112" x="70.35" y="67.9839">GlobalCorsConfig</text><line style="stroke:#181818;stroke-width:0.5;" x1="33" x2="192" y1="77.5" y2="77.5"/><line style="stroke:#181818;stroke-width:0.5;" x1="33" x2="192" y1="85.5" y2="85.5"/><ellipse cx="43" cy="100.5601" fill="#84BE84" rx="3" ry="3" style="stroke:#038048;stroke-width:1.0;"/><text fill="#000000" font-family="sans-serif" font-size="14" lengthAdjust="spacing" textLength="135" x="52" y="105.5439">corsFilter():CorsFilter</text></g><!--class FileDownloadController--><g id="elem_FileDownloadController"><rect codeLine="7" fill="#F1F1F1" height="67.1201" id="FileDownloadController" rx="2.5" ry="2.5" style="stroke:#181818;stroke-width:0.5;" width="448" x="228.5" y="45.5"/><ellipse cx="374.75" cy="61.5" fill="#ADD1B2" rx="11" ry="11" style="stroke:#181818;stroke-width:1.0;"/><path d="M373.3281,66.8594 Q371.4688,66.8594 370.375,65.4688 Q369.2813,64.0781 369.2813,61.0938 Q369.2813,58.5625 370.4453,56.9063 Q371.6094,55.25 373.5938,55.25 Q375.0625,55.25 375.5313,55.375 Q376,55.5781 376,55.5781 Q376,55.5781 376,55.5078 Q376,55.4375 376.6094,54.5156 L377.6563,58.1719 L376.3281,58.5781 Q375.8594,57.0313 375.1953,56.3672 Q374.5313,55.7031 373.4688,55.7031 Q373.0781,55.7031 372.3125,57.2344 Q371.5469,58.7656 371.5469,61.0156 Q371.5469,63.4844 372.2109,64.875 Q372.875,66.2656 373.4063,66.2656 Q374.4688,66.2656 375.2266,65.5 Q375.9844,64.7344 376.3281,63.0781 L377.6563,63.6719 Q377.3281,65.0781 376.4297,65.9688 Q375.5313,66.8594 373.3281,66.8594 Z " fill="#000000"/><text fill="#000000" font-family="sans-serif" font-size="14" lengthAdjust="spacing" textLength="147" x="395.25" y="67.9839">FileDownloadController</text><line style="stroke:#181818;stroke-width:0.5;" x1="229.5" x2="675.5" y1="77.5" y2="77.5"/><line style="stroke:#181818;stroke-width:0.5;" x1="229.5" x2="675.5" y1="85.5" y2="85.5"/><ellipse cx="239.5" cy="100.5601" fill="#84BE84" rx="3" ry="3" style="stroke:#038048;stroke-width:1.0;"/><text fill="#000000" font-family="sans-serif" font-size="14" lengthAdjust="spacing" textLength="422" x="248.5" y="105.5439">downloadFile(fileName:String, response:HttpServletResponse):void</text></g><!--class FilesController--><g id="elem_FilesController"><rect codeLine="11" fill="#F1F1F1" height="143.6006" id="FilesController" rx="2.5" ry="2.5" style="stroke:#181818;stroke-width:0.5;" width="407" x="712" y="7"/><ellipse cx="865.25" cy="23" fill="#ADD1B2" rx="11" ry="11" style="stroke:#181818;stroke-width:1.0;"/><path d="M863.8281,28.3594 Q861.9688,28.3594 860.875,26.9688 Q859.7813,25.5781 859.7813,22.5938 Q859.7813,20.0625 860.9453,18.4063 Q862.1094,16.75 864.0938,16.75 Q865.5625,16.75 866.0313,16.875 Q866.5,17.0781 866.5,17.0781 Q866.5,17.0781 866.5,17.0078 Q866.5,16.9375 867.1094,16.0156 L868.1563,19.6719 L866.8281,20.0781 Q866.3594,18.5313 865.6953,17.8672 Q865.0313,17.2031 863.9688,17.2031 Q863.5781,17.2031 862.8125,18.7344 Q862.0469,20.2656 862.0469,22.5156 Q862.0469,24.9844 862.7109,26.375 Q863.375,27.7656 863.9063,27.7656 Q864.9688,27.7656 865.7266,27 Q866.4844,26.2344 866.8281,24.5781 L868.1563,25.1719 Q867.8281,26.5781 866.9297,27.4688 Q866.0313,28.3594 863.8281,28.3594 Z " fill="#000000"/><text fill="#000000" font-family="sans-serif" font-size="14" lengthAdjust="spacing" textLength="92" x="885.75" y="29.4839">FilesController</text><line style="stroke:#181818;stroke-width:0.5;" x1="713" x2="1118" y1="39" y2="39"/><rect fill="none" height="6" style="stroke:#C82930;stroke-width:1.0;" width="6" x="720" y="51.0601"/><text fill="#000000" font-family="sans-serif" font-size="14" lengthAdjust="spacing" textLength="153" x="732" y="59.0439">filesService:FilesService</text><rect fill="none" height="6" style="stroke:#C82930;stroke-width:1.0;" width="6" x="720" y="70.1802"/><text fill="#000000" font-family="sans-serif" font-size="14" lengthAdjust="spacing" textLength="87" x="732" y="78.1641">filepath:String</text><line style="stroke:#181818;stroke-width:0.5;" x1="713" x2="1118" y1="85.2402" y2="85.2402"/><ellipse cx="723" cy="100.3003" fill="#84BE84" rx="3" ry="3" style="stroke:#038048;stroke-width:1.0;"/><text fill="#000000" font-family="sans-serif" font-size="14" lengthAdjust="spacing" textLength="117" x="732" y="105.2842">getAll():List&lt;Files&gt;</text><ellipse cx="723" cy="119.4204" fill="#84BE84" rx="3" ry="3" style="stroke:#038048;stroke-width:1.0;"/><text fill="#000000" font-family="sans-serif" font-size="14" lengthAdjust="spacing" textLength="241" x="732" y="124.4043">upload(uploadFile:MultipartFile):String</text><ellipse cx="723" cy="138.5405" fill="#84BE84" rx="3" ry="3" style="stroke:#038048;stroke-width:1.0;"/><text fill="#000000" font-family="sans-serif" font-size="14" lengthAdjust="spacing" textLength="381" x="732" y="143.5244">download(subUrl:String,response:HttpServletResponse):void</text></g><!--class GroupController--><g id="elem_GroupController"><rect codeLine="19" fill="#F1F1F1" height="143.6006" id="GroupController" rx="2.5" ry="2.5" style="stroke:#181818;stroke-width:0.5;" width="205" x="1154" y="7"/><ellipse cx="1201.25" cy="23" fill="#ADD1B2" rx="11" ry="11" style="stroke:#181818;stroke-width:1.0;"/><path d="M1199.8281,28.3594 Q1197.9688,28.3594 1196.875,26.9688 Q1195.7813,25.5781 1195.7813,22.5938 Q1195.7813,20.0625 1196.9453,18.4063 Q1198.1094,16.75 1200.0938,16.75 Q1201.5625,16.75 1202.0313,16.875 Q1202.5,17.0781 1202.5,17.0781 Q1202.5,17.0781 1202.5,17.0078 Q1202.5,16.9375 1203.1094,16.0156 L1204.1563,19.6719 L1202.8281,20.0781 Q1202.3594,18.5313 1201.6953,17.8672 Q1201.0313,17.2031 1199.9688,17.2031 Q1199.5781,17.2031 1198.8125,18.7344 Q1198.0469,20.2656 1198.0469,22.5156 Q1198.0469,24.9844 1198.7109,26.375 Q1199.375,27.7656 1199.9063,27.7656 Q1200.9688,27.7656 1201.7266,27 Q1202.4844,26.2344 1202.8281,24.5781 L1204.1563,25.1719 Q1203.8281,26.5781 1202.9297,27.4688 Q1202.0313,28.3594 1199.8281,28.3594 Z " fill="#000000"/><text fill="#000000" font-family="sans-serif" font-size="14" lengthAdjust="spacing" textLength="102" x="1221.75" y="29.4839">GroupController</text><line style="stroke:#181818;stroke-width:0.5;" x1="1155" x2="1358" y1="39" y2="39"/><rect fill="none" height="6" style="stroke:#C82930;stroke-width:1.0;" width="6" x="1162" y="51.0601"/><text fill="#000000" font-family="sans-serif" font-size="14" lengthAdjust="spacing" textLength="175" x="1174" y="59.0439">groupService:GroupService</text><line style="stroke:#181818;stroke-width:0.5;" x1="1155" x2="1358" y1="66.1201" y2="66.1201"/><ellipse cx="1165" cy="81.1802" fill="#84BE84" rx="3" ry="3" style="stroke:#038048;stroke-width:1.0;"/><text fill="#000000" font-family="sans-serif" font-size="14" lengthAdjust="spacing" textLength="127" x="1174" y="86.1641">getAll():List&lt;Group&gt;</text><ellipse cx="1165" cy="100.3003" fill="#84BE84" rx="3" ry="3" style="stroke:#038048;stroke-width:1.0;"/><text fill="#000000" font-family="sans-serif" font-size="14" lengthAdjust="spacing" textLength="170" x="1174" y="105.2842">insert(group:Group):Group</text><ellipse cx="1165" cy="119.4204" fill="#84BE84" rx="3" ry="3" style="stroke:#038048;stroke-width:1.0;"/><text fill="#000000" font-family="sans-serif" font-size="14" lengthAdjust="spacing" textLength="171" x="1174" y="124.4043">delete(group:Group):String</text><ellipse cx="1165" cy="138.5405" fill="#84BE84" rx="3" ry="3" style="stroke:#038048;stroke-width:1.0;"/><text fill="#000000" font-family="sans-serif" font-size="14" lengthAdjust="spacing" textLength="179" x="1174" y="143.5244">update(group:Group):Group</text></g><!--class InterController--><g id="elem_InterController"><rect codeLine="27" fill="#F1F1F1" height="143.6006" id="InterController" rx="2.5" ry="2.5" style="stroke:#181818;stroke-width:0.5;" width="180" x="1394.5" y="7"/><ellipse cx="1435.6" cy="23" fill="#ADD1B2" rx="11" ry="11" style="stroke:#181818;stroke-width:1.0;"/><path d="M1434.1781,28.3594 Q1432.3188,28.3594 1431.225,26.9688 Q1430.1313,25.5781 1430.1313,22.5938 Q1430.1313,20.0625 1431.2953,18.4063 Q1432.4594,16.75 1434.4438,16.75 Q1435.9125,16.75 1436.3813,16.875 Q1436.85,17.0781 1436.85,17.0781 Q1436.85,17.0781 1436.85,17.0078 Q1436.85,16.9375 1437.4594,16.0156 L1438.5063,19.6719 L1437.1781,20.0781 Q1436.7094,18.5313 1436.0453,17.8672 Q1435.3813,17.2031 1434.3188,17.2031 Q1433.9281,17.2031 1433.1625,18.7344 Q1432.3969,20.2656 1432.3969,22.5156 Q1432.3969,24.9844 1433.0609,26.375 Q1433.725,27.7656 1434.2563,27.7656 Q1435.3188,27.7656 1436.0766,27 Q1436.8344,26.2344 1437.1781,24.5781 L1438.5063,25.1719 Q1438.1781,26.5781 1437.2797,27.4688 Q1436.3813,28.3594 1434.1781,28.3594 Z " fill="#000000"/><text fill="#000000" font-family="sans-serif" font-size="14" lengthAdjust="spacing" textLength="90" x="1455.4" y="29.4839">InterController</text><line style="stroke:#181818;stroke-width:0.5;" x1="1395.5" x2="1573.5" y1="39" y2="39"/><rect fill="none" height="6" style="stroke:#C82930;stroke-width:1.0;" width="6" x="1402.5" y="51.0601"/><text fill="#000000" font-family="sans-serif" font-size="14" lengthAdjust="spacing" textLength="154" x="1414.5" y="59.0439">interService:InterService</text><line style="stroke:#181818;stroke-width:0.5;" x1="1395.5" x2="1573.5" y1="66.1201" y2="66.1201"/><ellipse cx="1405.5" cy="81.1802" fill="#84BE84" rx="3" ry="3" style="stroke:#038048;stroke-width:1.0;"/><text fill="#000000" font-family="sans-serif" font-size="14" lengthAdjust="spacing" textLength="115" x="1414.5" y="86.1641">getAll():List&lt;Inter&gt;</text><ellipse cx="1405.5" cy="100.3003" fill="#84BE84" rx="3" ry="3" style="stroke:#038048;stroke-width:1.0;"/><text fill="#000000" font-family="sans-serif" font-size="14" lengthAdjust="spacing" textLength="137" x="1414.5" y="105.2842">insert(inter:Inter):Inter</text><ellipse cx="1405.5" cy="119.4204" fill="#84BE84" rx="3" ry="3" style="stroke:#038048;stroke-width:1.0;"/><text fill="#000000" font-family="sans-serif" font-size="14" lengthAdjust="spacing" textLength="150" x="1414.5" y="124.4043">delete(inter:Inter):String</text><ellipse cx="1405.5" cy="138.5405" fill="#84BE84" rx="3" ry="3" style="stroke:#038048;stroke-width:1.0;"/><text fill="#000000" font-family="sans-serif" font-size="14" lengthAdjust="spacing" textLength="146" x="1414.5" y="143.5244">update(inter:Inter):Inter</text></g><!--class ProjectContentController--><g id="elem_ProjectContentController"><rect codeLine="35" fill="#F1F1F1" height="143.6006" id="ProjectContentController" rx="2.5" ry="2.5" style="stroke:#181818;stroke-width:0.5;" width="369" x="1610" y="7"/><ellipse cx="1712.25" cy="23" fill="#ADD1B2" rx="11" ry="11" style="stroke:#181818;stroke-width:1.0;"/><path d="M1710.8281,28.3594 Q1708.9688,28.3594 1707.875,26.9688 Q1706.7813,25.5781 1706.7813,22.5938 Q1706.7813,20.0625 1707.9453,18.4063 Q1709.1094,16.75 1711.0938,16.75 Q1712.5625,16.75 1713.0313,16.875 Q1713.5,17.0781 1713.5,17.0781 Q1713.5,17.0781 1713.5,17.0078 Q1713.5,16.9375 1714.1094,16.0156 L1715.1563,19.6719 L1713.8281,20.0781 Q1713.3594,18.5313 1712.6953,17.8672 Q1712.0313,17.2031 1710.9688,17.2031 Q1710.5781,17.2031 1709.8125,18.7344 Q1709.0469,20.2656 1709.0469,22.5156 Q1709.0469,24.9844 1709.7109,26.375 Q1710.375,27.7656 1710.9063,27.7656 Q1711.9688,27.7656 1712.7266,27 Q1713.4844,26.2344 1713.8281,24.5781 L1715.1563,25.1719 Q1714.8281,26.5781 1713.9297,27.4688 Q1713.0313,28.3594 1710.8281,28.3594 Z " fill="#000000"/><text fill="#000000" font-family="sans-serif" font-size="14" lengthAdjust="spacing" textLength="156" x="1732.75" y="29.4839">ProjectContentController</text><line style="stroke:#181818;stroke-width:0.5;" x1="1611" x2="1978" y1="39" y2="39"/><rect fill="none" height="6" style="stroke:#C82930;stroke-width:1.0;" width="6" x="1618" y="51.0601"/><text fill="#000000" font-family="sans-serif" font-size="14" lengthAdjust="spacing" textLength="285" x="1630" y="59.0439">projectContentService:ProjectContentService</text><line style="stroke:#181818;stroke-width:0.5;" x1="1611" x2="1978" y1="66.1201" y2="66.1201"/><ellipse cx="1621" cy="81.1802" fill="#84BE84" rx="3" ry="3" style="stroke:#038048;stroke-width:1.0;"/><text fill="#000000" font-family="sans-serif" font-size="14" lengthAdjust="spacing" textLength="181" x="1630" y="86.1641">getAll():List&lt;ProjectContent&gt;</text><ellipse cx="1621" cy="100.3003" fill="#84BE84" rx="3" ry="3" style="stroke:#038048;stroke-width:1.0;"/><text fill="#000000" font-family="sans-serif" font-size="14" lengthAdjust="spacing" textLength="334" x="1630" y="105.2842">insert(projectContent:ProjectContent):ProjectContent</text><ellipse cx="1621" cy="119.4204" fill="#84BE84" rx="3" ry="3" style="stroke:#038048;stroke-width:1.0;"/><text fill="#000000" font-family="sans-serif" font-size="14" lengthAdjust="spacing" textLength="281" x="1630" y="124.4043">delete(projectContent:ProjectContent):String</text><ellipse cx="1621" cy="138.5405" fill="#84BE84" rx="3" ry="3" style="stroke:#038048;stroke-width:1.0;"/><text fill="#000000" font-family="sans-serif" font-size="14" lengthAdjust="spacing" textLength="343" x="1630" y="143.5244">update(projectContent:ProjectContent):ProjectContent</text></g><!--class ProjectController--><g id="elem_ProjectController"><rect codeLine="43" fill="#F1F1F1" height="143.6006" id="ProjectController" rx="2.5" ry="2.5" style="stroke:#181818;stroke-width:0.5;" width="211" x="7" y="258.5"/><ellipse cx="55.25" cy="274.5" fill="#ADD1B2" rx="11" ry="11" style="stroke:#181818;stroke-width:1.0;"/><path d="M53.8281,279.8594 Q51.9688,279.8594 50.875,278.4688 Q49.7813,277.0781 49.7813,274.0938 Q49.7813,271.5625 50.9453,269.9063 Q52.1094,268.25 54.0938,268.25 Q55.5625,268.25 56.0313,268.375 Q56.5,268.5781 56.5,268.5781 Q56.5,268.5781 56.5,268.5078 Q56.5,268.4375 57.1094,267.5156 L58.1563,271.1719 L56.8281,271.5781 Q56.3594,270.0313 55.6953,269.3672 Q55.0313,268.7031 53.9688,268.7031 Q53.5781,268.7031 52.8125,270.2344 Q52.0469,271.7656 52.0469,274.0156 Q52.0469,276.4844 52.7109,277.875 Q53.375,279.2656 53.9063,279.2656 Q54.9688,279.2656 55.7266,278.5 Q56.4844,277.7344 56.8281,276.0781 L58.1563,276.6719 Q57.8281,278.0781 56.9297,278.9688 Q56.0313,279.8594 53.8281,279.8594 Z " fill="#000000"/><text fill="#000000" font-family="sans-serif" font-size="14" lengthAdjust="spacing" textLength="106" x="75.75" y="280.9839">ProjectController</text><line style="stroke:#181818;stroke-width:0.5;" x1="8" x2="217" y1="290.5" y2="290.5"/><rect fill="none" height="6" style="stroke:#C82930;stroke-width:1.0;" width="6" x="15" y="302.5601"/><text fill="#000000" font-family="sans-serif" font-size="14" lengthAdjust="spacing" textLength="185" x="27" y="310.5439">projectService:ProjectService</text><line style="stroke:#181818;stroke-width:0.5;" x1="8" x2="217" y1="317.6201" y2="317.6201"/><ellipse cx="18" cy="332.6802" fill="#84BE84" rx="3" ry="3" style="stroke:#038048;stroke-width:1.0;"/><text fill="#000000" font-family="sans-serif" font-size="14" lengthAdjust="spacing" textLength="131" x="27" y="337.6641">getAll():List&lt;Project&gt;</text><ellipse cx="18" cy="351.8003" fill="#84BE84" rx="3" ry="3" style="stroke:#038048;stroke-width:1.0;"/><text fill="#000000" font-family="sans-serif" font-size="14" lengthAdjust="spacing" textLength="162" x="27" y="356.7842">inset(item:Project):Project</text><ellipse cx="18" cy="370.9204" fill="#84BE84" rx="3" ry="3" style="stroke:#038048;stroke-width:1.0;"/><text fill="#000000" font-family="sans-serif" font-size="14" lengthAdjust="spacing" textLength="164" x="27" y="375.9043">delete(item:Project):String</text><ellipse cx="18" cy="390.0405" fill="#84BE84" rx="3" ry="3" style="stroke:#038048;stroke-width:1.0;"/><text fill="#000000" font-family="sans-serif" font-size="14" lengthAdjust="spacing" textLength="176" x="27" y="395.0244">update(item:Project):Project</text></g><!--class ProjectFilesController--><g id="elem_ProjectFilesController"><rect codeLine="51" fill="#F1F1F1" height="143.6006" id="ProjectFilesController" rx="2.5" ry="2.5" style="stroke:#181818;stroke-width:0.5;" width="271" x="253" y="258.5"/><ellipse cx="316.25" cy="274.5" fill="#ADD1B2" rx="11" ry="11" style="stroke:#181818;stroke-width:1.0;"/><path d="M314.8281,279.8594 Q312.9688,279.8594 311.875,278.4688 Q310.7813,277.0781 310.7813,274.0938 Q310.7813,271.5625 311.9453,269.9063 Q313.1094,268.25 315.0938,268.25 Q316.5625,268.25 317.0313,268.375 Q317.5,268.5781 317.5,268.5781 Q317.5,268.5781 317.5,268.5078 Q317.5,268.4375 318.1094,267.5156 L319.1563,271.1719 L317.8281,271.5781 Q317.3594,270.0313 316.6953,269.3672 Q316.0313,268.7031 314.9688,268.7031 Q314.5781,268.7031 313.8125,270.2344 Q313.0469,271.7656 313.0469,274.0156 Q313.0469,276.4844 313.7109,277.875 Q314.375,279.2656 314.9063,279.2656 Q315.9688,279.2656 316.7266,278.5 Q317.4844,277.7344 317.8281,276.0781 L319.1563,276.6719 Q318.8281,278.0781 317.9297,278.9688 Q317.0313,279.8594 314.8281,279.8594 Z " fill="#000000"/><text fill="#000000" font-family="sans-serif" font-size="14" lengthAdjust="spacing" textLength="136" x="336.75" y="280.9839">ProjectFilesController</text><line style="stroke:#181818;stroke-width:0.5;" x1="254" x2="523" y1="290.5" y2="290.5"/><rect fill="none" height="6" style="stroke:#C82930;stroke-width:1.0;" width="6" x="261" y="302.5601"/><text fill="#000000" font-family="sans-serif" font-size="14" lengthAdjust="spacing" textLength="245" x="273" y="310.5439">projectFilesService:ProjectFilesService</text><line style="stroke:#181818;stroke-width:0.5;" x1="254" x2="523" y1="317.6201" y2="317.6201"/><ellipse cx="264" cy="332.6802" fill="#84BE84" rx="3" ry="3" style="stroke:#038048;stroke-width:1.0;"/><text fill="#000000" font-family="sans-serif" font-size="14" lengthAdjust="spacing" textLength="161" x="273" y="337.6641">getAll():List&lt;ProjectFiles&gt;</text><ellipse cx="264" cy="351.8003" fill="#84BE84" rx="3" ry="3" style="stroke:#038048;stroke-width:1.0;"/><text fill="#000000" font-family="sans-serif" font-size="14" lengthAdjust="spacing" textLength="222" x="273" y="356.7842">inset(item:ProjectFiles):ProjectFiles</text><ellipse cx="264" cy="370.9204" fill="#84BE84" rx="3" ry="3" style="stroke:#038048;stroke-width:1.0;"/><text fill="#000000" font-family="sans-serif" font-size="14" lengthAdjust="spacing" textLength="194" x="273" y="375.9043">delete(item:ProjectFiles):String</text><ellipse cx="264" cy="390.0405" fill="#84BE84" rx="3" ry="3" style="stroke:#038048;stroke-width:1.0;"/><text fill="#000000" font-family="sans-serif" font-size="14" lengthAdjust="spacing" textLength="236" x="273" y="395.0244">update(item:ProjectFiles):ProjectFiles</text></g><!--class RoleController--><g id="elem_RoleController"><rect codeLine="59" fill="#F1F1F1" height="239.2012" id="RoleController" rx="2.5" ry="2.5" style="stroke:#181818;stroke-width:0.5;" width="288" x="559.5" y="211"/><ellipse cx="653.75" cy="227" fill="#ADD1B2" rx="11" ry="11" style="stroke:#181818;stroke-width:1.0;"/><path d="M652.3281,232.3594 Q650.4688,232.3594 649.375,230.9688 Q648.2813,229.5781 648.2813,226.5938 Q648.2813,224.0625 649.4453,222.4063 Q650.6094,220.75 652.5938,220.75 Q654.0625,220.75 654.5313,220.875 Q655,221.0781 655,221.0781 Q655,221.0781 655,221.0078 Q655,220.9375 655.6094,220.0156 L656.6563,223.6719 L655.3281,224.0781 Q654.8594,222.5313 654.1953,221.8672 Q653.5313,221.2031 652.4688,221.2031 Q652.0781,221.2031 651.3125,222.7344 Q650.5469,224.2656 650.5469,226.5156 Q650.5469,228.9844 651.2109,230.375 Q651.875,231.7656 652.4063,231.7656 Q653.4688,231.7656 654.2266,231 Q654.9844,230.2344 655.3281,228.5781 L656.6563,229.1719 Q656.3281,230.5781 655.4297,231.4688 Q654.5313,232.3594 652.3281,232.3594 Z " fill="#000000"/><text fill="#000000" font-family="sans-serif" font-size="14" lengthAdjust="spacing" textLength="91" x="674.25" y="233.4839">RoleController</text><line style="stroke:#181818;stroke-width:0.5;" x1="560.5" x2="846.5" y1="243" y2="243"/><rect fill="none" height="6" style="stroke:#C82930;stroke-width:1.0;" width="6" x="567.5" y="255.0601"/><text fill="#000000" font-family="sans-serif" font-size="14" lengthAdjust="spacing" textLength="151" x="579.5" y="263.0439">roleService:RoleService</text><rect fill="none" height="6" style="stroke:#C82930;stroke-width:1.0;" width="6" x="567.5" y="274.1802"/><text fill="#000000" font-family="sans-serif" font-size="14" lengthAdjust="spacing" textLength="197" x="579.5" y="282.1641">roleInfoService:RoleInfoService</text><rect fill="none" height="6" style="stroke:#C82930;stroke-width:1.0;" width="6" x="567.5" y="293.3003"/><text fill="#000000" font-family="sans-serif" font-size="14" lengthAdjust="spacing" textLength="175" x="579.5" y="301.2842">groupService:GroupService</text><rect fill="none" height="6" style="stroke:#C82930;stroke-width:1.0;" width="6" x="567.5" y="312.4204"/><text fill="#000000" font-family="sans-serif" font-size="14" lengthAdjust="spacing" textLength="231" x="579.5" y="320.4043">roleGroupService:RoleGroupService</text><rect fill="none" height="6" style="stroke:#C82930;stroke-width:1.0;" width="6" x="567.5" y="331.5405"/><text fill="#000000" font-family="sans-serif" font-size="14" lengthAdjust="spacing" textLength="262" x="579.5" y="339.5244">metaGroupTypeDao:MetaGroupTypeDao</text><line style="stroke:#181818;stroke-width:0.5;" x1="560.5" x2="846.5" y1="346.6006" y2="346.6006"/><ellipse cx="570.5" cy="361.6606" fill="#84BE84" rx="3" ry="3" style="stroke:#038048;stroke-width:1.0;"/><text fill="#000000" font-family="sans-serif" font-size="14" lengthAdjust="spacing" textLength="116" x="579.5" y="366.6445">getAll():List&lt;Role&gt;</text><ellipse cx="570.5" cy="380.7808" fill="#84BE84" rx="3" ry="3" style="stroke:#038048;stroke-width:1.0;"/><text fill="#000000" font-family="sans-serif" font-size="14" lengthAdjust="spacing" textLength="137" x="579.5" y="385.7646">insert(item:Role):Role</text><ellipse cx="570.5" cy="399.9009" fill="#84BE84" rx="3" ry="3" style="stroke:#038048;stroke-width:1.0;"/><text fill="#000000" font-family="sans-serif" font-size="14" lengthAdjust="spacing" textLength="149" x="579.5" y="404.8848">delete(item:Role):String</text><ellipse cx="570.5" cy="419.021" fill="#84BE84" rx="3" ry="3" style="stroke:#038048;stroke-width:1.0;"/><text fill="#000000" font-family="sans-serif" font-size="14" lengthAdjust="spacing" textLength="146" x="579.5" y="424.0049">update(item:Role):Role</text><ellipse cx="570.5" cy="438.1411" fill="#84BE84" rx="3" ry="3" style="stroke:#038048;stroke-width:1.0;"/><text fill="#000000" font-family="sans-serif" font-size="14" lengthAdjust="spacing" textLength="230" x="579.5" y="443.125">requestCode(hasPhone Role):String</text></g><!--class RoleGroupController--><g id="elem_RoleGroupController"><rect codeLine="72" fill="#F1F1F1" height="143.6006" id="RoleGroupController" rx="2.5" ry="2.5" style="stroke:#181818;stroke-width:0.5;" width="257" x="883" y="258.5"/><ellipse cx="941.75" cy="274.5" fill="#ADD1B2" rx="11" ry="11" style="stroke:#181818;stroke-width:1.0;"/><path d="M940.3281,279.8594 Q938.4688,279.8594 937.375,278.4688 Q936.2813,277.0781 936.2813,274.0938 Q936.2813,271.5625 937.4453,269.9063 Q938.6094,268.25 940.5938,268.25 Q942.0625,268.25 942.5313,268.375 Q943,268.5781 943,268.5781 Q943,268.5781 943,268.5078 Q943,268.4375 943.6094,267.5156 L944.6563,271.1719 L943.3281,271.5781 Q942.8594,270.0313 942.1953,269.3672 Q941.5313,268.7031 940.4688,268.7031 Q940.0781,268.7031 939.3125,270.2344 Q938.5469,271.7656 938.5469,274.0156 Q938.5469,276.4844 939.2109,277.875 Q939.875,279.2656 940.4063,279.2656 Q941.4688,279.2656 942.2266,278.5 Q942.9844,277.7344 943.3281,276.0781 L944.6563,276.6719 Q944.3281,278.0781 943.4297,278.9688 Q942.5313,279.8594 940.3281,279.8594 Z " fill="#000000"/><text fill="#000000" font-family="sans-serif" font-size="14" lengthAdjust="spacing" textLength="131" x="962.25" y="280.9839">RoleGroupController</text><line style="stroke:#181818;stroke-width:0.5;" x1="884" x2="1139" y1="290.5" y2="290.5"/><rect fill="none" height="6" style="stroke:#C82930;stroke-width:1.0;" width="6" x="891" y="302.5601"/><text fill="#000000" font-family="sans-serif" font-size="14" lengthAdjust="spacing" textLength="231" x="903" y="310.5439">roleGroupService:RoleGroupService</text><line style="stroke:#181818;stroke-width:0.5;" x1="884" x2="1139" y1="317.6201" y2="317.6201"/><ellipse cx="894" cy="332.6802" fill="#84BE84" rx="3" ry="3" style="stroke:#038048;stroke-width:1.0;"/><text fill="#000000" font-family="sans-serif" font-size="14" lengthAdjust="spacing" textLength="156" x="903" y="337.6641">getAll():List&lt;RoleGroup&gt;</text><ellipse cx="894" cy="351.8003" fill="#84BE84" rx="3" ry="3" style="stroke:#038048;stroke-width:1.0;"/><text fill="#000000" font-family="sans-serif" font-size="14" lengthAdjust="spacing" textLength="217" x="903" y="356.7842">insert(item:RoleGroup):RoleGroup</text><ellipse cx="894" cy="370.9204" fill="#84BE84" rx="3" ry="3" style="stroke:#038048;stroke-width:1.0;"/><text fill="#000000" font-family="sans-serif" font-size="14" lengthAdjust="spacing" textLength="189" x="903" y="375.9043">delete(item:RoleGroup):String</text><ellipse cx="894" cy="390.0405" fill="#84BE84" rx="3" ry="3" style="stroke:#038048;stroke-width:1.0;"/><text fill="#000000" font-family="sans-serif" font-size="14" lengthAdjust="spacing" textLength="226" x="903" y="395.0244">update(item:RoleGroup):RoleGroup</text></g><!--class RoleInfoController--><g id="elem_RoleInfoController"><rect codeLine="80" fill="#F1F1F1" height="143.6006" id="RoleInfoController" rx="2.5" ry="2.5" style="stroke:#181818;stroke-width:0.5;" width="223" x="1175" y="258.5"/><ellipse cx="1225.25" cy="274.5" fill="#ADD1B2" rx="11" ry="11" style="stroke:#181818;stroke-width:1.0;"/><path d="M1223.8281,279.8594 Q1221.9688,279.8594 1220.875,278.4688 Q1219.7813,277.0781 1219.7813,274.0938 Q1219.7813,271.5625 1220.9453,269.9063 Q1222.1094,268.25 1224.0938,268.25 Q1225.5625,268.25 1226.0313,268.375 Q1226.5,268.5781 1226.5,268.5781 Q1226.5,268.5781 1226.5,268.5078 Q1226.5,268.4375 1227.1094,267.5156 L1228.1563,271.1719 L1226.8281,271.5781 Q1226.3594,270.0313 1225.6953,269.3672 Q1225.0313,268.7031 1223.9688,268.7031 Q1223.5781,268.7031 1222.8125,270.2344 Q1222.0469,271.7656 1222.0469,274.0156 Q1222.0469,276.4844 1222.7109,277.875 Q1223.375,279.2656 1223.9063,279.2656 Q1224.9688,279.2656 1225.7266,278.5 Q1226.4844,277.7344 1226.8281,276.0781 L1228.1563,276.6719 Q1227.8281,278.0781 1226.9297,278.9688 Q1226.0313,279.8594 1223.8281,279.8594 Z " fill="#000000"/><text fill="#000000" font-family="sans-serif" font-size="14" lengthAdjust="spacing" textLength="114" x="1245.75" y="280.9839">RoleInfoController</text><line style="stroke:#181818;stroke-width:0.5;" x1="1176" x2="1397" y1="290.5" y2="290.5"/><rect fill="none" height="6" style="stroke:#C82930;stroke-width:1.0;" width="6" x="1183" y="302.5601"/><text fill="#000000" font-family="sans-serif" font-size="14" lengthAdjust="spacing" textLength="197" x="1195" y="310.5439">roleInfoService:RoleInfoService</text><line style="stroke:#181818;stroke-width:0.5;" x1="1176" x2="1397" y1="317.6201" y2="317.6201"/><ellipse cx="1186" cy="332.6802" fill="#84BE84" rx="3" ry="3" style="stroke:#038048;stroke-width:1.0;"/><text fill="#000000" font-family="sans-serif" font-size="14" lengthAdjust="spacing" textLength="139" x="1195" y="337.6641">getAll():List&lt;RoleInfo&gt;</text><ellipse cx="1186" cy="351.8003" fill="#84BE84" rx="3" ry="3" style="stroke:#038048;stroke-width:1.0;"/><text fill="#000000" font-family="sans-serif" font-size="14" lengthAdjust="spacing" textLength="183" x="1195" y="356.7842">insert(item:RoleInfo):RoleInfo</text><ellipse cx="1186" cy="370.9204" fill="#84BE84" rx="3" ry="3" style="stroke:#038048;stroke-width:1.0;"/><text fill="#000000" font-family="sans-serif" font-size="14" lengthAdjust="spacing" textLength="172" x="1195" y="375.9043">delete(item:RoleInfo):String</text><ellipse cx="1186" cy="390.0405" fill="#84BE84" rx="3" ry="3" style="stroke:#038048;stroke-width:1.0;"/><text fill="#000000" font-family="sans-serif" font-size="14" lengthAdjust="spacing" textLength="192" x="1195" y="395.0244">update(item:RoleInfo):RoleInfo</text></g><!--class JpaRepository--><g id="elem_JpaRepository"><rect codeLine="88" fill="#F1F1F1" height="48" id="JpaRepository" rx="2.5" ry="2.5" style="stroke:#181818;stroke-width:0.5;" width="150" x="2776.5" y="55"/><ellipse cx="2791.5" cy="71" fill="#B4A7E5" rx="11" ry="11" style="stroke:#181818;stroke-width:1.0;"/><path d="M2788.0938,65.2813 L2788.0938,64.875 L2794.4063,64.875 L2794.4063,65.2813 L2791.875,65.2813 Q2791.875,65.2813 2792.0234,65.4141 Q2792.1719,65.5469 2792.1719,65.8125 L2792.1719,75.2969 Q2792.1719,75.5625 2792.3906,75.6953 Q2792.6094,75.8281 2792.6094,75.8281 L2794.4063,75.8281 L2794.4063,76.2344 L2788.0938,76.2344 L2788.0938,75.8281 L2789.625,75.8281 Q2789.9531,75.8281 2790.0859,75.6953 Q2790.2188,75.5625 2790.2188,75.2969 L2790.2188,65.8125 Q2790.2188,65.5469 2790.0859,65.4141 Q2789.9531,65.2813 2789.625,65.2813 L2788.0938,65.2813 Z " fill="#000000"/><text fill="#000000" font-family="sans-serif" font-size="14" font-style="italic" lengthAdjust="spacing" textLength="91" x="2805.5" y="77.4839">JpaRepository</text><rect fill="#FFFFFF" height="18.3887" style="stroke:#181818;stroke-width:1.0;stroke-dasharray:2.0,2.0;" width="25" x="2904.5" y="52"/><text fill="#000000" font-family="sans-serif" font-size="12" font-style="italic" lengthAdjust="spacing" textLength="23" x="2905.5" y="66.752">T,ID</text><line style="stroke:#181818;stroke-width:0.5;" x1="2777.5" x2="2925.5" y1="87" y2="87"/><line style="stroke:#181818;stroke-width:0.5;" x1="2777.5" x2="2925.5" y1="95" y2="95"/></g><!--class MetaFileTypesDao--><g id="elem_MetaFileTypesDao"><rect codeLine="90" fill="#F1F1F1" height="48" id="MetaFileTypesDao" rx="2.5" ry="2.5" style="stroke:#181818;stroke-width:0.5;" width="152" x="1593.5" y="306.5"/><ellipse cx="1608.5" cy="322.5" fill="#B4A7E5" rx="11" ry="11" style="stroke:#181818;stroke-width:1.0;"/><path d="M1605.0938,316.7813 L1605.0938,316.375 L1611.4063,316.375 L1611.4063,316.7813 L1608.875,316.7813 Q1608.875,316.7813 1609.0234,316.9141 Q1609.1719,317.0469 1609.1719,317.3125 L1609.1719,326.7969 Q1609.1719,327.0625 1609.3906,327.1953 Q1609.6094,327.3281 1609.6094,327.3281 L1611.4063,327.3281 L1611.4063,327.7344 L1605.0938,327.7344 L1605.0938,327.3281 L1606.625,327.3281 Q1606.9531,327.3281 1607.0859,327.1953 Q1607.2188,327.0625 1607.2188,326.7969 L1607.2188,317.3125 Q1607.2188,317.0469 1607.0859,316.9141 Q1606.9531,316.7813 1606.625,316.7813 L1605.0938,316.7813 Z " fill="#000000"/><text fill="#000000" font-family="sans-serif" font-size="14" font-style="italic" lengthAdjust="spacing" textLength="120" x="1622.5" y="328.9839">MetaFileTypesDao</text><line style="stroke:#181818;stroke-width:0.5;" x1="1594.5" x2="1744.5" y1="338.5" y2="338.5"/><line style="stroke:#181818;stroke-width:0.5;" x1="1594.5" x2="1744.5" y1="346.5" y2="346.5"/></g><!--class MetaGroupTypeDao--><g id="elem_MetaGroupTypeDao"><rect codeLine="91" fill="#F1F1F1" height="48" id="MetaGroupTypeDao" rx="2.5" ry="2.5" style="stroke:#181818;stroke-width:0.5;" width="162" x="1780.5" y="306.5"/><ellipse cx="1795.5" cy="322.5" fill="#B4A7E5" rx="11" ry="11" style="stroke:#181818;stroke-width:1.0;"/><path d="M1792.0938,316.7813 L1792.0938,316.375 L1798.4063,316.375 L1798.4063,316.7813 L1795.875,316.7813 Q1795.875,316.7813 1796.0234,316.9141 Q1796.1719,317.0469 1796.1719,317.3125 L1796.1719,326.7969 Q1796.1719,327.0625 1796.3906,327.1953 Q1796.6094,327.3281 1796.6094,327.3281 L1798.4063,327.3281 L1798.4063,327.7344 L1792.0938,327.7344 L1792.0938,327.3281 L1793.625,327.3281 Q1793.9531,327.3281 1794.0859,327.1953 Q1794.2188,327.0625 1794.2188,326.7969 L1794.2188,317.3125 Q1794.2188,317.0469 1794.0859,316.9141 Q1793.9531,316.7813 1793.625,316.7813 L1792.0938,316.7813 Z " fill="#000000"/><text fill="#000000" font-family="sans-serif" font-size="14" font-style="italic" lengthAdjust="spacing" textLength="130" x="1809.5" y="328.9839">MetaGroupTypeDao</text><line style="stroke:#181818;stroke-width:0.5;" x1="1781.5" x2="1941.5" y1="338.5" y2="338.5"/><line style="stroke:#181818;stroke-width:0.5;" x1="1781.5" x2="1941.5" y1="346.5" y2="346.5"/></g><!--class MetaInterTypeDao--><g id="elem_MetaInterTypeDao"><rect codeLine="92" fill="#F1F1F1" height="48" id="MetaInterTypeDao" rx="2.5" ry="2.5" style="stroke:#181818;stroke-width:0.5;" width="151" x="1978" y="306.5"/><ellipse cx="1993" cy="322.5" fill="#B4A7E5" rx="11" ry="11" style="stroke:#181818;stroke-width:1.0;"/><path d="M1989.5938,316.7813 L1989.5938,316.375 L1995.9063,316.375 L1995.9063,316.7813 L1993.375,316.7813 Q1993.375,316.7813 1993.5234,316.9141 Q1993.6719,317.0469 1993.6719,317.3125 L1993.6719,326.7969 Q1993.6719,327.0625 1993.8906,327.1953 Q1994.1094,327.3281 1994.1094,327.3281 L1995.9063,327.3281 L1995.9063,327.7344 L1989.5938,327.7344 L1989.5938,327.3281 L1991.125,327.3281 Q1991.4531,327.3281 1991.5859,327.1953 Q1991.7188,327.0625 1991.7188,326.7969 L1991.7188,317.3125 Q1991.7188,317.0469 1991.5859,316.9141 Q1991.4531,316.7813 1991.125,316.7813 L1989.5938,316.7813 Z " fill="#000000"/><text fill="#000000" font-family="sans-serif" font-size="14" font-style="italic" lengthAdjust="spacing" textLength="119" x="2007" y="328.9839">MetaInterTypeDao</text><line style="stroke:#181818;stroke-width:0.5;" x1="1979" x2="2128" y1="338.5" y2="338.5"/><line style="stroke:#181818;stroke-width:0.5;" x1="1979" x2="2128" y1="346.5" y2="346.5"/></g><!--class MetaPermissionsDao--><g id="elem_MetaPermissionsDao"><rect codeLine="93" fill="#F1F1F1" height="48" id="MetaPermissionsDao" rx="2.5" ry="2.5" style="stroke:#181818;stroke-width:0.5;" width="166" x="2164.5" y="306.5"/><ellipse cx="2179.5" cy="322.5" fill="#B4A7E5" rx="11" ry="11" style="stroke:#181818;stroke-width:1.0;"/><path d="M2176.0938,316.7813 L2176.0938,316.375 L2182.4063,316.375 L2182.4063,316.7813 L2179.875,316.7813 Q2179.875,316.7813 2180.0234,316.9141 Q2180.1719,317.0469 2180.1719,317.3125 L2180.1719,326.7969 Q2180.1719,327.0625 2180.3906,327.1953 Q2180.6094,327.3281 2180.6094,327.3281 L2182.4063,327.3281 L2182.4063,327.7344 L2176.0938,327.7344 L2176.0938,327.3281 L2177.625,327.3281 Q2177.9531,327.3281 2178.0859,327.1953 Q2178.2188,327.0625 2178.2188,326.7969 L2178.2188,317.3125 Q2178.2188,317.0469 2178.0859,316.9141 Q2177.9531,316.7813 2177.625,316.7813 L2176.0938,316.7813 Z " fill="#000000"/><text fill="#000000" font-family="sans-serif" font-size="14" font-style="italic" lengthAdjust="spacing" textLength="134" x="2193.5" y="328.9839">MetaPermissionsDao</text><line style="stroke:#181818;stroke-width:0.5;" x1="2165.5" x2="2329.5" y1="338.5" y2="338.5"/><line style="stroke:#181818;stroke-width:0.5;" x1="2165.5" x2="2329.5" y1="346.5" y2="346.5"/></g><!--class MetaSexDao--><g id="elem_MetaSexDao"><rect codeLine="94" fill="#F1F1F1" height="48" id="MetaSexDao" rx="2.5" ry="2.5" style="stroke:#181818;stroke-width:0.5;" width="113" x="2366" y="306.5"/><ellipse cx="2381" cy="322.5" fill="#B4A7E5" rx="11" ry="11" style="stroke:#181818;stroke-width:1.0;"/><path d="M2377.5938,316.7813 L2377.5938,316.375 L2383.9063,316.375 L2383.9063,316.7813 L2381.375,316.7813 Q2381.375,316.7813 2381.5234,316.9141 Q2381.6719,317.0469 2381.6719,317.3125 L2381.6719,326.7969 Q2381.6719,327.0625 2381.8906,327.1953 Q2382.1094,327.3281 2382.1094,327.3281 L2383.9063,327.3281 L2383.9063,327.7344 L2377.5938,327.7344 L2377.5938,327.3281 L2379.125,327.3281 Q2379.4531,327.3281 2379.5859,327.1953 Q2379.7188,327.0625 2379.7188,326.7969 L2379.7188,317.3125 Q2379.7188,317.0469 2379.5859,316.9141 Q2379.4531,316.7813 2379.125,316.7813 L2377.5938,316.7813 Z " fill="#000000"/><text fill="#000000" font-family="sans-serif" font-size="14" font-style="italic" lengthAdjust="spacing" textLength="81" x="2395" y="328.9839">MetaSexDao</text><line style="stroke:#181818;stroke-width:0.5;" x1="2367" x2="2478" y1="338.5" y2="338.5"/><line style="stroke:#181818;stroke-width:0.5;" x1="2367" x2="2478" y1="346.5" y2="346.5"/></g><!--class MetaStatusDao--><g id="elem_MetaStatusDao"><rect codeLine="95" fill="#F1F1F1" height="48" id="MetaStatusDao" rx="2.5" ry="2.5" style="stroke:#181818;stroke-width:0.5;" width="130" x="2514.5" y="306.5"/><ellipse cx="2529.5" cy="322.5" fill="#B4A7E5" rx="11" ry="11" style="stroke:#181818;stroke-width:1.0;"/><path d="M2526.0938,316.7813 L2526.0938,316.375 L2532.4063,316.375 L2532.4063,316.7813 L2529.875,316.7813 Q2529.875,316.7813 2530.0234,316.9141 Q2530.1719,317.0469 2530.1719,317.3125 L2530.1719,326.7969 Q2530.1719,327.0625 2530.3906,327.1953 Q2530.6094,327.3281 2530.6094,327.3281 L2532.4063,327.3281 L2532.4063,327.7344 L2526.0938,327.7344 L2526.0938,327.3281 L2527.625,327.3281 Q2527.9531,327.3281 2528.0859,327.1953 Q2528.2188,327.0625 2528.2188,326.7969 L2528.2188,317.3125 Q2528.2188,317.0469 2528.0859,316.9141 Q2527.9531,316.7813 2527.625,316.7813 L2526.0938,316.7813 Z " fill="#000000"/><text fill="#000000" font-family="sans-serif" font-size="14" font-style="italic" lengthAdjust="spacing" textLength="98" x="2543.5" y="328.9839">MetaStatusDao</text><line style="stroke:#181818;stroke-width:0.5;" x1="2515.5" x2="2643.5" y1="338.5" y2="338.5"/><line style="stroke:#181818;stroke-width:0.5;" x1="2515.5" x2="2643.5" y1="346.5" y2="346.5"/></g><!--class FilesDao--><g id="elem_FilesDao"><rect codeLine="104" fill="#F1F1F1" height="48" id="FilesDao" rx="2.5" ry="2.5" style="stroke:#181818;stroke-width:0.5;" width="88" x="2679.5" y="306.5"/><ellipse cx="2694.5" cy="322.5" fill="#B4A7E5" rx="11" ry="11" style="stroke:#181818;stroke-width:1.0;"/><path d="M2691.0938,316.7813 L2691.0938,316.375 L2697.4063,316.375 L2697.4063,316.7813 L2694.875,316.7813 Q2694.875,316.7813 2695.0234,316.9141 Q2695.1719,317.0469 2695.1719,317.3125 L2695.1719,326.7969 Q2695.1719,327.0625 2695.3906,327.1953 Q2695.6094,327.3281 2695.6094,327.3281 L2697.4063,327.3281 L2697.4063,327.7344 L2691.0938,327.7344 L2691.0938,327.3281 L2692.625,327.3281 Q2692.9531,327.3281 2693.0859,327.1953 Q2693.2188,327.0625 2693.2188,326.7969 L2693.2188,317.3125 Q2693.2188,317.0469 2693.0859,316.9141 Q2692.9531,316.7813 2692.625,316.7813 L2691.0938,316.7813 Z " fill="#000000"/><text fill="#000000" font-family="sans-serif" font-size="14" font-style="italic" lengthAdjust="spacing" textLength="56" x="2708.5" y="328.9839">FilesDao</text><line style="stroke:#181818;stroke-width:0.5;" x1="2680.5" x2="2766.5" y1="338.5" y2="338.5"/><line style="stroke:#181818;stroke-width:0.5;" x1="2680.5" x2="2766.5" y1="346.5" y2="346.5"/></g><!--class GroupDao--><g id="elem_GroupDao"><rect codeLine="105" fill="#F1F1F1" height="48" id="GroupDao" rx="2.5" ry="2.5" style="stroke:#181818;stroke-width:0.5;" width="98" x="2802.5" y="306.5"/><ellipse cx="2817.5" cy="322.5" fill="#B4A7E5" rx="11" ry="11" style="stroke:#181818;stroke-width:1.0;"/><path d="M2814.0938,316.7813 L2814.0938,316.375 L2820.4063,316.375 L2820.4063,316.7813 L2817.875,316.7813 Q2817.875,316.7813 2818.0234,316.9141 Q2818.1719,317.0469 2818.1719,317.3125 L2818.1719,326.7969 Q2818.1719,327.0625 2818.3906,327.1953 Q2818.6094,327.3281 2818.6094,327.3281 L2820.4063,327.3281 L2820.4063,327.7344 L2814.0938,327.7344 L2814.0938,327.3281 L2815.625,327.3281 Q2815.9531,327.3281 2816.0859,327.1953 Q2816.2188,327.0625 2816.2188,326.7969 L2816.2188,317.3125 Q2816.2188,317.0469 2816.0859,316.9141 Q2815.9531,316.7813 2815.625,316.7813 L2814.0938,316.7813 Z " fill="#000000"/><text fill="#000000" font-family="sans-serif" font-size="14" font-style="italic" lengthAdjust="spacing" textLength="66" x="2831.5" y="328.9839">GroupDao</text><line style="stroke:#181818;stroke-width:0.5;" x1="2803.5" x2="2899.5" y1="338.5" y2="338.5"/><line style="stroke:#181818;stroke-width:0.5;" x1="2803.5" x2="2899.5" y1="346.5" y2="346.5"/></g><!--class InterDao--><g id="elem_InterDao"><rect codeLine="106" fill="#F1F1F1" height="48" id="InterDao" rx="2.5" ry="2.5" style="stroke:#181818;stroke-width:0.5;" width="87" x="2936" y="306.5"/><ellipse cx="2951" cy="322.5" fill="#B4A7E5" rx="11" ry="11" style="stroke:#181818;stroke-width:1.0;"/><path d="M2947.5938,316.7813 L2947.5938,316.375 L2953.9063,316.375 L2953.9063,316.7813 L2951.375,316.7813 Q2951.375,316.7813 2951.5234,316.9141 Q2951.6719,317.0469 2951.6719,317.3125 L2951.6719,326.7969 Q2951.6719,327.0625 2951.8906,327.1953 Q2952.1094,327.3281 2952.1094,327.3281 L2953.9063,327.3281 L2953.9063,327.7344 L2947.5938,327.7344 L2947.5938,327.3281 L2949.125,327.3281 Q2949.4531,327.3281 2949.5859,327.1953 Q2949.7188,327.0625 2949.7188,326.7969 L2949.7188,317.3125 Q2949.7188,317.0469 2949.5859,316.9141 Q2949.4531,316.7813 2949.125,316.7813 L2947.5938,316.7813 Z " fill="#000000"/><text fill="#000000" font-family="sans-serif" font-size="14" font-style="italic" lengthAdjust="spacing" textLength="55" x="2965" y="328.9839">InterDao</text><line style="stroke:#181818;stroke-width:0.5;" x1="2937" x2="3022" y1="338.5" y2="338.5"/><line style="stroke:#181818;stroke-width:0.5;" x1="2937" x2="3022" y1="346.5" y2="346.5"/></g><!--class ProjectContentDao--><g id="elem_ProjectContentDao"><rect codeLine="107" fill="#F1F1F1" height="48" id="ProjectContentDao" rx="2.5" ry="2.5" style="stroke:#181818;stroke-width:0.5;" width="152" x="3058.5" y="306.5"/><ellipse cx="3073.5" cy="322.5" fill="#B4A7E5" rx="11" ry="11" style="stroke:#181818;stroke-width:1.0;"/><path d="M3070.0938,316.7813 L3070.0938,316.375 L3076.4063,316.375 L3076.4063,316.7813 L3073.875,316.7813 Q3073.875,316.7813 3074.0234,316.9141 Q3074.1719,317.0469 3074.1719,317.3125 L3074.1719,326.7969 Q3074.1719,327.0625 3074.3906,327.1953 Q3074.6094,327.3281 3074.6094,327.3281 L3076.4063,327.3281 L3076.4063,327.7344 L3070.0938,327.7344 L3070.0938,327.3281 L3071.625,327.3281 Q3071.9531,327.3281 3072.0859,327.1953 Q3072.2188,327.0625 3072.2188,326.7969 L3072.2188,317.3125 Q3072.2188,317.0469 3072.0859,316.9141 Q3071.9531,316.7813 3071.625,316.7813 L3070.0938,316.7813 Z " fill="#000000"/><text fill="#000000" font-family="sans-serif" font-size="14" font-style="italic" lengthAdjust="spacing" textLength="120" x="3087.5" y="328.9839">ProjectContentDao</text><line style="stroke:#181818;stroke-width:0.5;" x1="3059.5" x2="3209.5" y1="338.5" y2="338.5"/><line style="stroke:#181818;stroke-width:0.5;" x1="3059.5" x2="3209.5" y1="346.5" y2="346.5"/></g><!--class ProjectDao--><g id="elem_ProjectDao"><rect codeLine="108" fill="#F1F1F1" height="48" id="ProjectDao" rx="2.5" ry="2.5" style="stroke:#181818;stroke-width:0.5;" width="102" x="3245.5" y="306.5"/><ellipse cx="3260.5" cy="322.5" fill="#B4A7E5" rx="11" ry="11" style="stroke:#181818;stroke-width:1.0;"/><path d="M3257.0938,316.7813 L3257.0938,316.375 L3263.4063,316.375 L3263.4063,316.7813 L3260.875,316.7813 Q3260.875,316.7813 3261.0234,316.9141 Q3261.1719,317.0469 3261.1719,317.3125 L3261.1719,326.7969 Q3261.1719,327.0625 3261.3906,327.1953 Q3261.6094,327.3281 3261.6094,327.3281 L3263.4063,327.3281 L3263.4063,327.7344 L3257.0938,327.7344 L3257.0938,327.3281 L3258.625,327.3281 Q3258.9531,327.3281 3259.0859,327.1953 Q3259.2188,327.0625 3259.2188,326.7969 L3259.2188,317.3125 Q3259.2188,317.0469 3259.0859,316.9141 Q3258.9531,316.7813 3258.625,316.7813 L3257.0938,316.7813 Z " fill="#000000"/><text fill="#000000" font-family="sans-serif" font-size="14" font-style="italic" lengthAdjust="spacing" textLength="70" x="3274.5" y="328.9839">ProjectDao</text><line style="stroke:#181818;stroke-width:0.5;" x1="3246.5" x2="3346.5" y1="338.5" y2="338.5"/><line style="stroke:#181818;stroke-width:0.5;" x1="3246.5" x2="3346.5" y1="346.5" y2="346.5"/></g><!--class ProjectFilesDao--><g id="elem_ProjectFilesDao"><rect codeLine="109" fill="#F1F1F1" height="48" id="ProjectFilesDao" rx="2.5" ry="2.5" style="stroke:#181818;stroke-width:0.5;" width="132" x="3382.5" y="306.5"/><ellipse cx="3397.5" cy="322.5" fill="#B4A7E5" rx="11" ry="11" style="stroke:#181818;stroke-width:1.0;"/><path d="M3394.0938,316.7813 L3394.0938,316.375 L3400.4063,316.375 L3400.4063,316.7813 L3397.875,316.7813 Q3397.875,316.7813 3398.0234,316.9141 Q3398.1719,317.0469 3398.1719,317.3125 L3398.1719,326.7969 Q3398.1719,327.0625 3398.3906,327.1953 Q3398.6094,327.3281 3398.6094,327.3281 L3400.4063,327.3281 L3400.4063,327.7344 L3394.0938,327.7344 L3394.0938,327.3281 L3395.625,327.3281 Q3395.9531,327.3281 3396.0859,327.1953 Q3396.2188,327.0625 3396.2188,326.7969 L3396.2188,317.3125 Q3396.2188,317.0469 3396.0859,316.9141 Q3395.9531,316.7813 3395.625,316.7813 L3394.0938,316.7813 Z " fill="#000000"/><text fill="#000000" font-family="sans-serif" font-size="14" font-style="italic" lengthAdjust="spacing" textLength="100" x="3411.5" y="328.9839">ProjectFilesDao</text><line style="stroke:#181818;stroke-width:0.5;" x1="3383.5" x2="3513.5" y1="338.5" y2="338.5"/><line style="stroke:#181818;stroke-width:0.5;" x1="3383.5" x2="3513.5" y1="346.5" y2="346.5"/></g><!--class RoleDao--><g id="elem_RoleDao"><rect codeLine="110" fill="#F1F1F1" height="48" id="RoleDao" rx="2.5" ry="2.5" style="stroke:#181818;stroke-width:0.5;" width="87" x="3550" y="306.5"/><ellipse cx="3565" cy="322.5" fill="#B4A7E5" rx="11" ry="11" style="stroke:#181818;stroke-width:1.0;"/><path d="M3561.5938,316.7813 L3561.5938,316.375 L3567.9063,316.375 L3567.9063,316.7813 L3565.375,316.7813 Q3565.375,316.7813 3565.5234,316.9141 Q3565.6719,317.0469 3565.6719,317.3125 L3565.6719,326.7969 Q3565.6719,327.0625 3565.8906,327.1953 Q3566.1094,327.3281 3566.1094,327.3281 L3567.9063,327.3281 L3567.9063,327.7344 L3561.5938,327.7344 L3561.5938,327.3281 L3563.125,327.3281 Q3563.4531,327.3281 3563.5859,327.1953 Q3563.7188,327.0625 3563.7188,326.7969 L3563.7188,317.3125 Q3563.7188,317.0469 3563.5859,316.9141 Q3563.4531,316.7813 3563.125,316.7813 L3561.5938,316.7813 Z " fill="#000000"/><text fill="#000000" font-family="sans-serif" font-size="14" font-style="italic" lengthAdjust="spacing" textLength="55" x="3579" y="328.9839">RoleDao</text><line style="stroke:#181818;stroke-width:0.5;" x1="3551" x2="3636" y1="338.5" y2="338.5"/><line style="stroke:#181818;stroke-width:0.5;" x1="3551" x2="3636" y1="346.5" y2="346.5"/></g><!--class RoleGroupDao--><g id="elem_RoleGroupDao"><rect codeLine="111" fill="#F1F1F1" height="48" id="RoleGroupDao" rx="2.5" ry="2.5" style="stroke:#181818;stroke-width:0.5;" width="127" x="3672" y="306.5"/><ellipse cx="3687" cy="322.5" fill="#B4A7E5" rx="11" ry="11" style="stroke:#181818;stroke-width:1.0;"/><path d="M3683.5938,316.7813 L3683.5938,316.375 L3689.9063,316.375 L3689.9063,316.7813 L3687.375,316.7813 Q3687.375,316.7813 3687.5234,316.9141 Q3687.6719,317.0469 3687.6719,317.3125 L3687.6719,326.7969 Q3687.6719,327.0625 3687.8906,327.1953 Q3688.1094,327.3281 3688.1094,327.3281 L3689.9063,327.3281 L3689.9063,327.7344 L3683.5938,327.7344 L3683.5938,327.3281 L3685.125,327.3281 Q3685.4531,327.3281 3685.5859,327.1953 Q3685.7188,327.0625 3685.7188,326.7969 L3685.7188,317.3125 Q3685.7188,317.0469 3685.5859,316.9141 Q3685.4531,316.7813 3685.125,316.7813 L3683.5938,316.7813 Z " fill="#000000"/><text fill="#000000" font-family="sans-serif" font-size="14" font-style="italic" lengthAdjust="spacing" textLength="95" x="3701" y="328.9839">RoleGroupDao</text><line style="stroke:#181818;stroke-width:0.5;" x1="3673" x2="3798" y1="338.5" y2="338.5"/><line style="stroke:#181818;stroke-width:0.5;" x1="3673" x2="3798" y1="346.5" y2="346.5"/></g><!--class RoleInfoDao--><g id="elem_RoleInfoDao"><rect codeLine="112" fill="#F1F1F1" height="48" id="RoleInfoDao" rx="2.5" ry="2.5" style="stroke:#181818;stroke-width:0.5;" width="111" x="3834" y="306.5"/><ellipse cx="3849" cy="322.5" fill="#B4A7E5" rx="11" ry="11" style="stroke:#181818;stroke-width:1.0;"/><path d="M3845.5938,316.7813 L3845.5938,316.375 L3851.9063,316.375 L3851.9063,316.7813 L3849.375,316.7813 Q3849.375,316.7813 3849.5234,316.9141 Q3849.6719,317.0469 3849.6719,317.3125 L3849.6719,326.7969 Q3849.6719,327.0625 3849.8906,327.1953 Q3850.1094,327.3281 3850.1094,327.3281 L3851.9063,327.3281 L3851.9063,327.7344 L3845.5938,327.7344 L3845.5938,327.3281 L3847.125,327.3281 Q3847.4531,327.3281 3847.5859,327.1953 Q3847.7188,327.0625 3847.7188,326.7969 L3847.7188,317.3125 Q3847.7188,317.0469 3847.5859,316.9141 Q3847.4531,316.7813 3847.125,316.7813 L3845.5938,316.7813 Z " fill="#000000"/><text fill="#000000" font-family="sans-serif" font-size="14" font-style="italic" lengthAdjust="spacing" textLength="79" x="3863" y="328.9839">RoleInfoDao</text><line style="stroke:#181818;stroke-width:0.5;" x1="3835" x2="3944" y1="338.5" y2="338.5"/><line style="stroke:#181818;stroke-width:0.5;" x1="3835" x2="3944" y1="346.5" y2="346.5"/></g><!--class MetaFileTypes--><g id="elem_MetaFileTypes"><rect codeLine="124" fill="#F1F1F1" height="86.2402" id="MetaFileTypes" rx="2.5" ry="2.5" style="stroke:#181818;stroke-width:0.5;" width="125" x="1433" y="287.5"/><ellipse cx="1448" cy="303.5" fill="#ADD1B2" rx="11" ry="11" style="stroke:#181818;stroke-width:1.0;"/><path d="M1446.5781,308.8594 Q1444.7188,308.8594 1443.625,307.4688 Q1442.5313,306.0781 1442.5313,303.0938 Q1442.5313,300.5625 1443.6953,298.9063 Q1444.8594,297.25 1446.8438,297.25 Q1448.3125,297.25 1448.7813,297.375 Q1449.25,297.5781 1449.25,297.5781 Q1449.25,297.5781 1449.25,297.5078 Q1449.25,297.4375 1449.8594,296.5156 L1450.9063,300.1719 L1449.5781,300.5781 Q1449.1094,299.0313 1448.4453,298.3672 Q1447.7813,297.7031 1446.7188,297.7031 Q1446.3281,297.7031 1445.5625,299.2344 Q1444.7969,300.7656 1444.7969,303.0156 Q1444.7969,305.4844 1445.4609,306.875 Q1446.125,308.2656 1446.6563,308.2656 Q1447.7188,308.2656 1448.4766,307.5 Q1449.2344,306.7344 1449.5781,305.0781 L1450.9063,305.6719 Q1450.5781,307.0781 1449.6797,307.9688 Q1448.7813,308.8594 1446.5781,308.8594 Z " fill="#000000"/><text fill="#000000" font-family="sans-serif" font-size="14" lengthAdjust="spacing" textLength="93" x="1462" y="309.9839">MetaFileTypes</text><line style="stroke:#181818;stroke-width:0.5;" x1="1434" x2="1557" y1="319.5" y2="319.5"/><rect fill="none" height="6" style="stroke:#C82930;stroke-width:1.0;" width="6" x="1441" y="331.5601"/><text fill="#000000" font-family="sans-serif" font-size="14" lengthAdjust="spacing" textLength="59" x="1453" y="339.5439">id:Integer</text><rect fill="none" height="6" style="stroke:#C82930;stroke-width:1.0;" width="6" x="1441" y="350.6802"/><text fill="#000000" font-family="sans-serif" font-size="14" lengthAdjust="spacing" textLength="68" x="1453" y="358.6641">type:String</text><line style="stroke:#181818;stroke-width:0.5;" x1="1434" x2="1557" y1="365.7402" y2="365.7402"/></g><!--class MetaGroupType--><g id="elem_MetaGroupType"><rect codeLine="129" fill="#F1F1F1" height="86.2402" id="MetaGroupType" rx="2.5" ry="2.5" style="stroke:#181818;stroke-width:0.5;" width="135" x="45" y="548.5"/><ellipse cx="60" cy="564.5" fill="#ADD1B2" rx="11" ry="11" style="stroke:#181818;stroke-width:1.0;"/><path d="M58.5781,569.8594 Q56.7188,569.8594 55.625,568.4688 Q54.5313,567.0781 54.5313,564.0938 Q54.5313,561.5625 55.6953,559.9063 Q56.8594,558.25 58.8438,558.25 Q60.3125,558.25 60.7813,558.375 Q61.25,558.5781 61.25,558.5781 Q61.25,558.5781 61.25,558.5078 Q61.25,558.4375 61.8594,557.5156 L62.9063,561.1719 L61.5781,561.5781 Q61.1094,560.0313 60.4453,559.3672 Q59.7813,558.7031 58.7188,558.7031 Q58.3281,558.7031 57.5625,560.2344 Q56.7969,561.7656 56.7969,564.0156 Q56.7969,566.4844 57.4609,567.875 Q58.125,569.2656 58.6563,569.2656 Q59.7188,569.2656 60.4766,568.5 Q61.2344,567.7344 61.5781,566.0781 L62.9063,566.6719 Q62.5781,568.0781 61.6797,568.9688 Q60.7813,569.8594 58.5781,569.8594 Z " fill="#000000"/><text fill="#000000" font-family="sans-serif" font-size="14" lengthAdjust="spacing" textLength="103" x="74" y="570.9839">MetaGroupType</text><line style="stroke:#181818;stroke-width:0.5;" x1="46" x2="179" y1="580.5" y2="580.5"/><rect fill="none" height="6" style="stroke:#C82930;stroke-width:1.0;" width="6" x="53" y="592.5601"/><text fill="#000000" font-family="sans-serif" font-size="14" lengthAdjust="spacing" textLength="59" x="65" y="600.5439">id:Integer</text><rect fill="none" height="6" style="stroke:#C82930;stroke-width:1.0;" width="6" x="53" y="611.6802"/><text fill="#000000" font-family="sans-serif" font-size="14" lengthAdjust="spacing" textLength="68" x="65" y="619.6641">type:String</text><line style="stroke:#181818;stroke-width:0.5;" x1="46" x2="179" y1="626.7402" y2="626.7402"/></g><!--class MetaInterType--><g id="elem_MetaInterType"><rect codeLine="134" fill="#F1F1F1" height="86.2402" id="MetaInterType" rx="2.5" ry="2.5" style="stroke:#181818;stroke-width:0.5;" width="123" x="215" y="548.5"/><ellipse cx="230" cy="564.5" fill="#ADD1B2" rx="11" ry="11" style="stroke:#181818;stroke-width:1.0;"/><path d="M228.5781,569.8594 Q226.7188,569.8594 225.625,568.4688 Q224.5313,567.0781 224.5313,564.0938 Q224.5313,561.5625 225.6953,559.9063 Q226.8594,558.25 228.8438,558.25 Q230.3125,558.25 230.7813,558.375 Q231.25,558.5781 231.25,558.5781 Q231.25,558.5781 231.25,558.5078 Q231.25,558.4375 231.8594,557.5156 L232.9063,561.1719 L231.5781,561.5781 Q231.1094,560.0313 230.4453,559.3672 Q229.7813,558.7031 228.7188,558.7031 Q228.3281,558.7031 227.5625,560.2344 Q226.7969,561.7656 226.7969,564.0156 Q226.7969,566.4844 227.4609,567.875 Q228.125,569.2656 228.6563,569.2656 Q229.7188,569.2656 230.4766,568.5 Q231.2344,567.7344 231.5781,566.0781 L232.9063,566.6719 Q232.5781,568.0781 231.6797,568.9688 Q230.7813,569.8594 228.5781,569.8594 Z " fill="#000000"/><text fill="#000000" font-family="sans-serif" font-size="14" lengthAdjust="spacing" textLength="91" x="244" y="570.9839">MetaInterType</text><line style="stroke:#181818;stroke-width:0.5;" x1="216" x2="337" y1="580.5" y2="580.5"/><rect fill="none" height="6" style="stroke:#C82930;stroke-width:1.0;" width="6" x="223" y="592.5601"/><text fill="#000000" font-family="sans-serif" font-size="14" lengthAdjust="spacing" textLength="59" x="235" y="600.5439">id:Integer</text><rect fill="none" height="6" style="stroke:#C82930;stroke-width:1.0;" width="6" x="223" y="611.6802"/><text fill="#000000" font-family="sans-serif" font-size="14" lengthAdjust="spacing" textLength="68" x="235" y="619.6641">type:String</text><line style="stroke:#181818;stroke-width:0.5;" x1="216" x2="337" y1="626.7402" y2="626.7402"/></g><!--class MetaPermissions--><g id="elem_MetaPermissions"><rect codeLine="139" fill="#F1F1F1" height="86.2402" id="MetaPermissions" rx="2.5" ry="2.5" style="stroke:#181818;stroke-width:0.5;" width="139" x="373" y="548.5"/><ellipse cx="388" cy="564.5" fill="#ADD1B2" rx="11" ry="11" style="stroke:#181818;stroke-width:1.0;"/><path d="M386.5781,569.8594 Q384.7188,569.8594 383.625,568.4688 Q382.5313,567.0781 382.5313,564.0938 Q382.5313,561.5625 383.6953,559.9063 Q384.8594,558.25 386.8438,558.25 Q388.3125,558.25 388.7813,558.375 Q389.25,558.5781 389.25,558.5781 Q389.25,558.5781 389.25,558.5078 Q389.25,558.4375 389.8594,557.5156 L390.9063,561.1719 L389.5781,561.5781 Q389.1094,560.0313 388.4453,559.3672 Q387.7813,558.7031 386.7188,558.7031 Q386.3281,558.7031 385.5625,560.2344 Q384.7969,561.7656 384.7969,564.0156 Q384.7969,566.4844 385.4609,567.875 Q386.125,569.2656 386.6563,569.2656 Q387.7188,569.2656 388.4766,568.5 Q389.2344,567.7344 389.5781,566.0781 L390.9063,566.6719 Q390.5781,568.0781 389.6797,568.9688 Q388.7813,569.8594 386.5781,569.8594 Z " fill="#000000"/><text fill="#000000" font-family="sans-serif" font-size="14" lengthAdjust="spacing" textLength="107" x="402" y="570.9839">MetaPermissions</text><line style="stroke:#181818;stroke-width:0.5;" x1="374" x2="511" y1="580.5" y2="580.5"/><rect fill="none" height="6" style="stroke:#C82930;stroke-width:1.0;" width="6" x="381" y="592.5601"/><text fill="#000000" font-family="sans-serif" font-size="14" lengthAdjust="spacing" textLength="59" x="393" y="600.5439">id:Integer</text><rect fill="none" height="6" style="stroke:#C82930;stroke-width:1.0;" width="6" x="381" y="611.6802"/><text fill="#000000" font-family="sans-serif" font-size="14" lengthAdjust="spacing" textLength="68" x="393" y="619.6641">type:String</text><line style="stroke:#181818;stroke-width:0.5;" x1="374" x2="511" y1="626.7402" y2="626.7402"/></g><!--class MetaSex--><g id="elem_MetaSex"><rect codeLine="144" fill="#F1F1F1" height="86.2402" id="MetaSex" rx="2.5" ry="2.5" style="stroke:#181818;stroke-width:0.5;" width="94" x="547.5" y="548.5"/><ellipse cx="566.1" cy="564.5" fill="#ADD1B2" rx="11" ry="11" style="stroke:#181818;stroke-width:1.0;"/><path d="M564.6781,569.8594 Q562.8188,569.8594 561.725,568.4688 Q560.6313,567.0781 560.6313,564.0938 Q560.6313,561.5625 561.7953,559.9063 Q562.9594,558.25 564.9438,558.25 Q566.4125,558.25 566.8813,558.375 Q567.35,558.5781 567.35,558.5781 Q567.35,558.5781 567.35,558.5078 Q567.35,558.4375 567.9594,557.5156 L569.0063,561.1719 L567.6781,561.5781 Q567.2094,560.0313 566.5453,559.3672 Q565.8813,558.7031 564.8188,558.7031 Q564.4281,558.7031 563.6625,560.2344 Q562.8969,561.7656 562.8969,564.0156 Q562.8969,566.4844 563.5609,567.875 Q564.225,569.2656 564.7563,569.2656 Q565.8188,569.2656 566.5766,568.5 Q567.3344,567.7344 567.6781,566.0781 L569.0063,566.6719 Q568.6781,568.0781 567.7797,568.9688 Q566.8813,569.8594 564.6781,569.8594 Z " fill="#000000"/><text fill="#000000" font-family="sans-serif" font-size="14" lengthAdjust="spacing" textLength="54" x="580.9" y="570.9839">MetaSex</text><line style="stroke:#181818;stroke-width:0.5;" x1="548.5" x2="640.5" y1="580.5" y2="580.5"/><rect fill="none" height="6" style="stroke:#C82930;stroke-width:1.0;" width="6" x="555.5" y="592.5601"/><text fill="#000000" font-family="sans-serif" font-size="14" lengthAdjust="spacing" textLength="59" x="567.5" y="600.5439">id:Integer</text><rect fill="none" height="6" style="stroke:#C82930;stroke-width:1.0;" width="6" x="555.5" y="611.6802"/><text fill="#000000" font-family="sans-serif" font-size="14" lengthAdjust="spacing" textLength="68" x="567.5" y="619.6641">type:String</text><line style="stroke:#181818;stroke-width:0.5;" x1="548.5" x2="640.5" y1="626.7402" y2="626.7402"/></g><!--class MetaStatus--><g id="elem_MetaStatus"><rect codeLine="149" fill="#F1F1F1" height="86.2402" id="MetaStatus" rx="2.5" ry="2.5" style="stroke:#181818;stroke-width:0.5;" width="103" x="677" y="548.5"/><ellipse cx="692" cy="564.5" fill="#ADD1B2" rx="11" ry="11" style="stroke:#181818;stroke-width:1.0;"/><path d="M690.5781,569.8594 Q688.7188,569.8594 687.625,568.4688 Q686.5313,567.0781 686.5313,564.0938 Q686.5313,561.5625 687.6953,559.9063 Q688.8594,558.25 690.8438,558.25 Q692.3125,558.25 692.7813,558.375 Q693.25,558.5781 693.25,558.5781 Q693.25,558.5781 693.25,558.5078 Q693.25,558.4375 693.8594,557.5156 L694.9063,561.1719 L693.5781,561.5781 Q693.1094,560.0313 692.4453,559.3672 Q691.7813,558.7031 690.7188,558.7031 Q690.3281,558.7031 689.5625,560.2344 Q688.7969,561.7656 688.7969,564.0156 Q688.7969,566.4844 689.4609,567.875 Q690.125,569.2656 690.6563,569.2656 Q691.7188,569.2656 692.4766,568.5 Q693.2344,567.7344 693.5781,566.0781 L694.9063,566.6719 Q694.5781,568.0781 693.6797,568.9688 Q692.7813,569.8594 690.5781,569.8594 Z " fill="#000000"/><text fill="#000000" font-family="sans-serif" font-size="14" lengthAdjust="spacing" textLength="71" x="706" y="570.9839">MetaStatus</text><line style="stroke:#181818;stroke-width:0.5;" x1="678" x2="779" y1="580.5" y2="580.5"/><rect fill="none" height="6" style="stroke:#C82930;stroke-width:1.0;" width="6" x="685" y="592.5601"/><text fill="#000000" font-family="sans-serif" font-size="14" lengthAdjust="spacing" textLength="59" x="697" y="600.5439">id:Integer</text><rect fill="none" height="6" style="stroke:#C82930;stroke-width:1.0;" width="6" x="685" y="611.6802"/><text fill="#000000" font-family="sans-serif" font-size="14" lengthAdjust="spacing" textLength="68" x="697" y="619.6641">type:String</text><line style="stroke:#181818;stroke-width:0.5;" x1="678" x2="779" y1="626.7402" y2="626.7402"/></g><!--class Files--><g id="elem_Files"><rect codeLine="154" fill="#F1F1F1" height="162.7207" id="Files" rx="2.5" ry="2.5" style="stroke:#181818;stroke-width:0.5;" width="135" x="815" y="510"/><ellipse cx="863.25" cy="526" fill="#ADD1B2" rx="11" ry="11" style="stroke:#181818;stroke-width:1.0;"/><path d="M861.8281,531.3594 Q859.9688,531.3594 858.875,529.9688 Q857.7813,528.5781 857.7813,525.5938 Q857.7813,523.0625 858.9453,521.4063 Q860.1094,519.75 862.0938,519.75 Q863.5625,519.75 864.0313,519.875 Q864.5,520.0781 864.5,520.0781 Q864.5,520.0781 864.5,520.0078 Q864.5,519.9375 865.1094,519.0156 L866.1563,522.6719 L864.8281,523.0781 Q864.3594,521.5313 863.6953,520.8672 Q863.0313,520.2031 861.9688,520.2031 Q861.5781,520.2031 860.8125,521.7344 Q860.0469,523.2656 860.0469,525.5156 Q860.0469,527.9844 860.7109,529.375 Q861.375,530.7656 861.9063,530.7656 Q862.9688,530.7656 863.7266,530 Q864.4844,529.2344 864.8281,527.5781 L866.1563,528.1719 Q865.8281,529.5781 864.9297,530.4688 Q864.0313,531.3594 861.8281,531.3594 Z " fill="#000000"/><text fill="#000000" font-family="sans-serif" font-size="14" lengthAdjust="spacing" textLength="30" x="883.75" y="532.4839">Files</text><line style="stroke:#181818;stroke-width:0.5;" x1="816" x2="949" y1="542" y2="542"/><rect fill="none" height="6" style="stroke:#C82930;stroke-width:1.0;" width="6" x="823" y="554.0601"/><text fill="#000000" font-family="sans-serif" font-size="14" lengthAdjust="spacing" textLength="57" x="835" y="562.0439">url:String</text><rect fill="none" height="6" style="stroke:#C82930;stroke-width:1.0;" width="6" x="823" y="573.1802"/><text fill="#000000" font-family="sans-serif" font-size="14" lengthAdjust="spacing" textLength="76" x="835" y="581.1641">name:String</text><rect fill="none" height="6" style="stroke:#C82930;stroke-width:1.0;" width="6" x="823" y="592.3003"/><text fill="#000000" font-family="sans-serif" font-size="14" lengthAdjust="spacing" textLength="98" x="835" y="600.2842">fileType:Integer</text><rect fill="none" height="6" style="stroke:#C82930;stroke-width:1.0;" width="6" x="823" y="611.4204"/><text fill="#000000" font-family="sans-serif" font-size="14" lengthAdjust="spacing" textLength="104" x="835" y="619.4043">isOrigin:Boolean</text><rect fill="none" height="6" style="stroke:#C82930;stroke-width:1.0;" width="6" x="823" y="630.5405"/><text fill="#000000" font-family="sans-serif" font-size="14" lengthAdjust="spacing" textLength="69" x="835" y="638.5244">path:String</text><rect fill="none" height="6" style="stroke:#C82930;stroke-width:1.0;" width="6" x="823" y="649.6606"/><text fill="#000000" font-family="sans-serif" font-size="14" lengthAdjust="spacing" textLength="109" x="835" y="657.6445">updateTime:Date</text><line style="stroke:#181818;stroke-width:0.5;" x1="816" x2="949" y1="664.7207" y2="664.7207"/></g><!--class Group--><g id="elem_Group"><rect codeLine="163" fill="#F1F1F1" height="162.7207" id="Group" rx="2.5" ry="2.5" style="stroke:#181818;stroke-width:0.5;" width="143" x="41" y="742.5"/><ellipse cx="88.25" cy="758.5" fill="#ADD1B2" rx="11" ry="11" style="stroke:#181818;stroke-width:1.0;"/><path d="M86.8281,763.8594 Q84.9688,763.8594 83.875,762.4688 Q82.7813,761.0781 82.7813,758.0938 Q82.7813,755.5625 83.9453,753.9063 Q85.1094,752.25 87.0938,752.25 Q88.5625,752.25 89.0313,752.375 Q89.5,752.5781 89.5,752.5781 Q89.5,752.5781 89.5,752.5078 Q89.5,752.4375 90.1094,751.5156 L91.1563,755.1719 L89.8281,755.5781 Q89.3594,754.0313 88.6953,753.3672 Q88.0313,752.7031 86.9688,752.7031 Q86.5781,752.7031 85.8125,754.2344 Q85.0469,755.7656 85.0469,758.0156 Q85.0469,760.4844 85.7109,761.875 Q86.375,763.2656 86.9063,763.2656 Q87.9688,763.2656 88.7266,762.5 Q89.4844,761.7344 89.8281,760.0781 L91.1563,760.6719 Q90.8281,762.0781 89.9297,762.9688 Q89.0313,763.8594 86.8281,763.8594 Z " fill="#000000"/><text fill="#000000" font-family="sans-serif" font-size="14" lengthAdjust="spacing" textLength="40" x="108.75" y="764.9839">Group</text><line style="stroke:#181818;stroke-width:0.5;" x1="42" x2="183" y1="774.5" y2="774.5"/><rect fill="none" height="6" style="stroke:#C82930;stroke-width:1.0;" width="6" x="49" y="786.5601"/><text fill="#000000" font-family="sans-serif" font-size="14" lengthAdjust="spacing" textLength="67" x="61" y="794.5439">gid:Integer</text><rect fill="none" height="6" style="stroke:#C82930;stroke-width:1.0;" width="6" x="49" y="805.6802"/><text fill="#000000" font-family="sans-serif" font-size="14" lengthAdjust="spacing" textLength="106" x="61" y="813.6641">superGid:Integer</text><rect fill="none" height="6" style="stroke:#C82930;stroke-width:1.0;" width="6" x="49" y="824.8003"/><text fill="#000000" font-family="sans-serif" font-size="14" lengthAdjust="spacing" textLength="114" x="61" y="832.7842">groupName:String</text><rect fill="none" height="6" style="stroke:#C82930;stroke-width:1.0;" width="6" x="49" y="843.9204"/><text fill="#000000" font-family="sans-serif" font-size="14" lengthAdjust="spacing" textLength="117" x="61" y="851.9043">groupType:Integer</text><rect fill="none" height="6" style="stroke:#C82930;stroke-width:1.0;" width="6" x="49" y="863.0405"/><text fill="#000000" font-family="sans-serif" font-size="14" lengthAdjust="spacing" textLength="63" x="61" y="871.0244">tid:Integer</text><rect fill="none" height="6" style="stroke:#C82930;stroke-width:1.0;" width="6" x="49" y="882.1606"/><text fill="#000000" font-family="sans-serif" font-size="14" lengthAdjust="spacing" textLength="105" x="61" y="890.1445">interName:String</text><line style="stroke:#181818;stroke-width:0.5;" x1="42" x2="183" y1="897.2207" y2="897.2207"/></g><!--class Inter--><g id="elem_Inter"><rect codeLine="172" fill="#F1F1F1" height="162.7207" id="Inter" rx="2.5" ry="2.5" style="stroke:#181818;stroke-width:0.5;" width="135" x="219" y="742.5"/><ellipse cx="268.25" cy="758.5" fill="#ADD1B2" rx="11" ry="11" style="stroke:#181818;stroke-width:1.0;"/><path d="M266.8281,763.8594 Q264.9688,763.8594 263.875,762.4688 Q262.7813,761.0781 262.7813,758.0938 Q262.7813,755.5625 263.9453,753.9063 Q265.1094,752.25 267.0938,752.25 Q268.5625,752.25 269.0313,752.375 Q269.5,752.5781 269.5,752.5781 Q269.5,752.5781 269.5,752.5078 Q269.5,752.4375 270.1094,751.5156 L271.1563,755.1719 L269.8281,755.5781 Q269.3594,754.0313 268.6953,753.3672 Q268.0313,752.7031 266.9688,752.7031 Q266.5781,752.7031 265.8125,754.2344 Q265.0469,755.7656 265.0469,758.0156 Q265.0469,760.4844 265.7109,761.875 Q266.375,763.2656 266.9063,763.2656 Q267.9688,763.2656 268.7266,762.5 Q269.4844,761.7344 269.8281,760.0781 L271.1563,760.6719 Q270.8281,762.0781 269.9297,762.9688 Q269.0313,763.8594 266.8281,763.8594 Z " fill="#000000"/><text fill="#000000" font-family="sans-serif" font-size="14" lengthAdjust="spacing" textLength="28" x="288.75" y="764.9839">Inter</text><line style="stroke:#181818;stroke-width:0.5;" x1="220" x2="353" y1="774.5" y2="774.5"/><rect fill="none" height="6" style="stroke:#C82930;stroke-width:1.0;" width="6" x="227" y="786.5601"/><text fill="#000000" font-family="sans-serif" font-size="14" lengthAdjust="spacing" textLength="63" x="239" y="794.5439">tid:Integer</text><rect fill="none" height="6" style="stroke:#C82930;stroke-width:1.0;" width="6" x="227" y="805.6802"/><text fill="#000000" font-family="sans-serif" font-size="14" lengthAdjust="spacing" textLength="101" x="239" y="813.6641">interType:String</text><rect fill="none" height="6" style="stroke:#C82930;stroke-width:1.0;" width="6" x="227" y="824.8003"/><text fill="#000000" font-family="sans-serif" font-size="14" lengthAdjust="spacing" textLength="105" x="239" y="832.7842">interName:String</text><rect fill="none" height="6" style="stroke:#C82930;stroke-width:1.0;" width="6" x="227" y="843.9204"/><text fill="#000000" font-family="sans-serif" font-size="14" lengthAdjust="spacing" textLength="91" x="239" y="851.9043">industry:String</text><rect fill="none" height="6" style="stroke:#C82930;stroke-width:1.0;" width="6" x="227" y="863.0405"/><text fill="#000000" font-family="sans-serif" font-size="14" lengthAdjust="spacing" textLength="105" x="239" y="871.0244">createTime:Date</text><rect fill="none" height="6" style="stroke:#C82930;stroke-width:1.0;" width="6" x="227" y="882.1606"/><text fill="#000000" font-family="sans-serif" font-size="14" lengthAdjust="spacing" textLength="109" x="239" y="890.1445">updateTime:Date</text><line style="stroke:#181818;stroke-width:0.5;" x1="220" x2="353" y1="897.2207" y2="897.2207"/></g><!--class Project--><g id="elem_Project"><rect codeLine="181" fill="#F1F1F1" height="86.2402" id="Project" rx="2.5" ry="2.5" style="stroke:#181818;stroke-width:0.5;" width="93" x="389" y="781"/><ellipse cx="411.65" cy="797" fill="#ADD1B2" rx="11" ry="11" style="stroke:#181818;stroke-width:1.0;"/><path d="M410.2281,802.3594 Q408.3688,802.3594 407.275,800.9688 Q406.1813,799.5781 406.1813,796.5938 Q406.1813,794.0625 407.3453,792.4063 Q408.5094,790.75 410.4938,790.75 Q411.9625,790.75 412.4313,790.875 Q412.9,791.0781 412.9,791.0781 Q412.9,791.0781 412.9,791.0078 Q412.9,790.9375 413.5094,790.0156 L414.5563,793.6719 L413.2281,794.0781 Q412.7594,792.5313 412.0953,791.8672 Q411.4313,791.2031 410.3688,791.2031 Q409.9781,791.2031 409.2125,792.7344 Q408.4469,794.2656 408.4469,796.5156 Q408.4469,798.9844 409.1109,800.375 Q409.775,801.7656 410.3063,801.7656 Q411.3688,801.7656 412.1266,801 Q412.8844,800.2344 413.2281,798.5781 L414.5563,799.1719 Q414.2281,800.5781 413.3297,801.4688 Q412.4313,802.3594 410.2281,802.3594 Z " fill="#000000"/><text fill="#000000" font-family="sans-serif" font-size="14" lengthAdjust="spacing" textLength="44" x="427.35" y="803.4839">Project</text><line style="stroke:#181818;stroke-width:0.5;" x1="390" x2="481" y1="813" y2="813"/><rect fill="none" height="6" style="stroke:#C82930;stroke-width:1.0;" width="6" x="397" y="825.0601"/><text fill="#000000" font-family="sans-serif" font-size="14" lengthAdjust="spacing" textLength="67" x="409" y="833.0439">pid:Integer</text><rect fill="none" height="6" style="stroke:#C82930;stroke-width:1.0;" width="6" x="397" y="844.1802"/><text fill="#000000" font-family="sans-serif" font-size="14" lengthAdjust="spacing" textLength="67" x="409" y="852.1641">gid:Integer</text><line style="stroke:#181818;stroke-width:0.5;" x1="390" x2="481" y1="859.2402" y2="859.2402"/></g><!--class ProjectContent--><g id="elem_ProjectContent"><rect codeLine="186" fill="#F1F1F1" height="181.8408" id="ProjectContent" rx="2.5" ry="2.5" style="stroke:#181818;stroke-width:0.5;" width="126" x="517.5" y="733"/><ellipse cx="532.5" cy="749" fill="#ADD1B2" rx="11" ry="11" style="stroke:#181818;stroke-width:1.0;"/><path d="M531.0781,754.3594 Q529.2188,754.3594 528.125,752.9688 Q527.0313,751.5781 527.0313,748.5938 Q527.0313,746.0625 528.1953,744.4063 Q529.3594,742.75 531.3438,742.75 Q532.8125,742.75 533.2813,742.875 Q533.75,743.0781 533.75,743.0781 Q533.75,743.0781 533.75,743.0078 Q533.75,742.9375 534.3594,742.0156 L535.4063,745.6719 L534.0781,746.0781 Q533.6094,744.5313 532.9453,743.8672 Q532.2813,743.2031 531.2188,743.2031 Q530.8281,743.2031 530.0625,744.7344 Q529.2969,746.2656 529.2969,748.5156 Q529.2969,750.9844 529.9609,752.375 Q530.625,753.7656 531.1563,753.7656 Q532.2188,753.7656 532.9766,753 Q533.7344,752.2344 534.0781,750.5781 L535.4063,751.1719 Q535.0781,752.5781 534.1797,753.4688 Q533.2813,754.3594 531.0781,754.3594 Z " fill="#000000"/><text fill="#000000" font-family="sans-serif" font-size="14" lengthAdjust="spacing" textLength="94" x="546.5" y="755.4839">ProjectContent</text><line style="stroke:#181818;stroke-width:0.5;" x1="518.5" x2="642.5" y1="765" y2="765"/><rect fill="none" height="6" style="stroke:#C82930;stroke-width:1.0;" width="6" x="525.5" y="777.0601"/><text fill="#000000" font-family="sans-serif" font-size="14" lengthAdjust="spacing" textLength="67" x="537.5" y="785.0439">pid:Integer</text><rect fill="none" height="6" style="stroke:#C82930;stroke-width:1.0;" width="6" x="525.5" y="796.1802"/><text fill="#000000" font-family="sans-serif" font-size="14" lengthAdjust="spacing" textLength="70" x="537.5" y="804.1641">title:Integer</text><rect fill="none" height="6" style="stroke:#C82930;stroke-width:1.0;" width="6" x="525.5" y="815.3003"/><text fill="#000000" font-family="sans-serif" font-size="14" lengthAdjust="spacing" textLength="88" x="537.5" y="823.2842">content:String</text><rect fill="none" height="6" style="stroke:#C82930;stroke-width:1.0;" width="6" x="525.5" y="834.4204"/><text fill="#000000" font-family="sans-serif" font-size="14" lengthAdjust="spacing" textLength="63" x="537.5" y="842.4043">tid:Integer</text><rect fill="none" height="6" style="stroke:#C82930;stroke-width:1.0;" width="6" x="525.5" y="853.5405"/><text fill="#000000" font-family="sans-serif" font-size="14" lengthAdjust="spacing" textLength="68" x="537.5" y="861.5244">s1ddl:Date</text><rect fill="none" height="6" style="stroke:#C82930;stroke-width:1.0;" width="6" x="525.5" y="872.6606"/><text fill="#000000" font-family="sans-serif" font-size="14" lengthAdjust="spacing" textLength="68" x="537.5" y="880.6445">s2ddl:Date</text><rect fill="none" height="6" style="stroke:#C82930;stroke-width:1.0;" width="6" x="525.5" y="891.7808"/><text fill="#000000" font-family="sans-serif" font-size="14" lengthAdjust="spacing" textLength="68" x="537.5" y="899.7646">s3ddl:Date</text><line style="stroke:#181818;stroke-width:0.5;" x1="518.5" x2="642.5" y1="906.8408" y2="906.8408"/></g><!--class ProjectFiles--><g id="elem_ProjectFiles"><rect codeLine="196" fill="#F1F1F1" height="105.3604" id="ProjectFiles" rx="2.5" ry="2.5" style="stroke:#181818;stroke-width:0.5;" width="198" x="678.5" y="771.5"/><ellipse cx="736.25" cy="787.5" fill="#ADD1B2" rx="11" ry="11" style="stroke:#181818;stroke-width:1.0;"/><path d="M734.8281,792.8594 Q732.9688,792.8594 731.875,791.4688 Q730.7813,790.0781 730.7813,787.0938 Q730.7813,784.5625 731.9453,782.9063 Q733.1094,781.25 735.0938,781.25 Q736.5625,781.25 737.0313,781.375 Q737.5,781.5781 737.5,781.5781 Q737.5,781.5781 737.5,781.5078 Q737.5,781.4375 738.1094,780.5156 L739.1563,784.1719 L737.8281,784.5781 Q737.3594,783.0313 736.6953,782.3672 Q736.0313,781.7031 734.9688,781.7031 Q734.5781,781.7031 733.8125,783.2344 Q733.0469,784.7656 733.0469,787.0156 Q733.0469,789.4844 733.7109,790.875 Q734.375,792.2656 734.9063,792.2656 Q735.9688,792.2656 736.7266,791.5 Q737.4844,790.7344 737.8281,789.0781 L739.1563,789.6719 Q738.8281,791.0781 737.9297,791.9688 Q737.0313,792.8594 734.8281,792.8594 Z " fill="#000000"/><text fill="#000000" font-family="sans-serif" font-size="14" lengthAdjust="spacing" textLength="74" x="756.75" y="793.9839">ProjectFiles</text><line style="stroke:#181818;stroke-width:0.5;" x1="679.5" x2="875.5" y1="803.5" y2="803.5"/><rect fill="none" height="6" style="stroke:#C82930;stroke-width:1.0;" width="6" x="686.5" y="815.5601"/><text fill="#000000" font-family="sans-serif" font-size="14" lengthAdjust="spacing" textLength="172" x="698.5" y="823.5439">keys:UPKs.ProjectFilesUPK</text><rect fill="none" height="6" style="stroke:#C82930;stroke-width:1.0;" width="6" x="686.5" y="834.6802"/><text fill="#000000" font-family="sans-serif" font-size="14" lengthAdjust="spacing" textLength="83" x="698.5" y="842.6641">stage:Integer</text><rect fill="none" height="6" style="stroke:#C82930;stroke-width:1.0;" width="6" x="686.5" y="853.8003"/><text fill="#000000" font-family="sans-serif" font-size="14" lengthAdjust="spacing" textLength="83" x="698.5" y="861.7842">score:Integer</text><line style="stroke:#181818;stroke-width:0.5;" x1="679.5" x2="875.5" y1="868.8604" y2="868.8604"/></g><!--class Role--><g id="elem_Role"><rect codeLine="202" fill="#F1F1F1" height="143.6006" id="Role" rx="2.5" ry="2.5" style="stroke:#181818;stroke-width:0.5;" width="127" x="912" y="752"/><ellipse cx="956.75" cy="768" fill="#ADD1B2" rx="11" ry="11" style="stroke:#181818;stroke-width:1.0;"/><path d="M955.3281,773.3594 Q953.4688,773.3594 952.375,771.9688 Q951.2813,770.5781 951.2813,767.5938 Q951.2813,765.0625 952.4453,763.4063 Q953.6094,761.75 955.5938,761.75 Q957.0625,761.75 957.5313,761.875 Q958,762.0781 958,762.0781 Q958,762.0781 958,762.0078 Q958,761.9375 958.6094,761.0156 L959.6563,764.6719 L958.3281,765.0781 Q957.8594,763.5313 957.1953,762.8672 Q956.5313,762.2031 955.4688,762.2031 Q955.0781,762.2031 954.3125,763.7344 Q953.5469,765.2656 953.5469,767.5156 Q953.5469,769.9844 954.2109,771.375 Q954.875,772.7656 955.4063,772.7656 Q956.4688,772.7656 957.2266,772 Q957.9844,771.2344 958.3281,769.5781 L959.6563,770.1719 Q959.3281,771.5781 958.4297,772.4688 Q957.5313,773.3594 955.3281,773.3594 Z " fill="#000000"/><text fill="#000000" font-family="sans-serif" font-size="14" lengthAdjust="spacing" textLength="29" x="977.25" y="774.4839">Role</text><line style="stroke:#181818;stroke-width:0.5;" x1="913" x2="1038" y1="784" y2="784"/><rect fill="none" height="6" style="stroke:#C82930;stroke-width:1.0;" width="6" x="920" y="796.0601"/><text fill="#000000" font-family="sans-serif" font-size="14" lengthAdjust="spacing" textLength="67" x="932" y="804.0439">uid:Integer</text><rect fill="none" height="6" style="stroke:#C82930;stroke-width:1.0;" width="6" x="920" y="815.1802"/><text fill="#000000" font-family="sans-serif" font-size="14" lengthAdjust="spacing" textLength="81" x="932" y="823.1641">phone:String</text><rect fill="none" height="6" style="stroke:#C82930;stroke-width:1.0;" width="6" x="920" y="834.3003"/><text fill="#000000" font-family="sans-serif" font-size="14" lengthAdjust="spacing" textLength="101" x="932" y="842.2842">nickname:String</text><rect fill="none" height="6" style="stroke:#C82930;stroke-width:1.0;" width="6" x="920" y="853.4204"/><text fill="#000000" font-family="sans-serif" font-size="14" lengthAdjust="spacing" textLength="76" x="932" y="861.4043">token:String</text><rect fill="none" height="6" style="stroke:#C82930;stroke-width:1.0;" width="6" x="920" y="872.5405"/><text fill="#000000" font-family="sans-serif" font-size="14" lengthAdjust="spacing" textLength="91" x="932" y="880.5244">belong:Integer</text><line style="stroke:#181818;stroke-width:0.5;" x1="913" x2="1038" y1="887.6006" y2="887.6006"/></g><!--class RoleGroup--><g id="elem_RoleGroup"><rect codeLine="210" fill="#F1F1F1" height="86.2402" id="RoleGroup" rx="2.5" ry="2.5" style="stroke:#181818;stroke-width:0.5;" width="193" x="16" y="1013.5"/><ellipse cx="73.75" cy="1029.5" fill="#ADD1B2" rx="11" ry="11" style="stroke:#181818;stroke-width:1.0;"/><path d="M72.3281,1034.8594 Q70.4688,1034.8594 69.375,1033.4688 Q68.2813,1032.0781 68.2813,1029.0938 Q68.2813,1026.5625 69.4453,1024.9063 Q70.6094,1023.25 72.5938,1023.25 Q74.0625,1023.25 74.5313,1023.375 Q75,1023.5781 75,1023.5781 Q75,1023.5781 75,1023.5078 Q75,1023.4375 75.6094,1022.5156 L76.6563,1026.1719 L75.3281,1026.5781 Q74.8594,1025.0313 74.1953,1024.3672 Q73.5313,1023.7031 72.4688,1023.7031 Q72.0781,1023.7031 71.3125,1025.2344 Q70.5469,1026.7656 70.5469,1029.0156 Q70.5469,1031.4844 71.2109,1032.875 Q71.875,1034.2656 72.4063,1034.2656 Q73.4688,1034.2656 74.2266,1033.5 Q74.9844,1032.7344 75.3281,1031.0781 L76.6563,1031.6719 Q76.3281,1033.0781 75.4297,1033.9688 Q74.5313,1034.8594 72.3281,1034.8594 Z " fill="#000000"/><text fill="#000000" font-family="sans-serif" font-size="14" lengthAdjust="spacing" textLength="69" x="94.25" y="1035.9839">RoleGroup</text><line style="stroke:#181818;stroke-width:0.5;" x1="17" x2="208" y1="1045.5" y2="1045.5"/><rect fill="none" height="6" style="stroke:#C82930;stroke-width:1.0;" width="6" x="24" y="1057.5601"/><text fill="#000000" font-family="sans-serif" font-size="14" lengthAdjust="spacing" textLength="167" x="36" y="1065.5439">keys:UPKs.RoleGroupUPK</text><rect fill="none" height="6" style="stroke:#C82930;stroke-width:1.0;" width="6" x="24" y="1076.6802"/><text fill="#000000" font-family="sans-serif" font-size="14" lengthAdjust="spacing" textLength="116" x="36" y="1084.6641">permission:Integer</text><line style="stroke:#181818;stroke-width:0.5;" x1="17" x2="208" y1="1091.7402" y2="1091.7402"/></g><!--class RoleInfo--><g id="elem_RoleInfo"><rect codeLine="215" fill="#F1F1F1" height="162.7207" id="RoleInfo" rx="2.5" ry="2.5" style="stroke:#181818;stroke-width:0.5;" width="124" x="244.5" y="975"/><ellipse cx="277.5" cy="991" fill="#ADD1B2" rx="11" ry="11" style="stroke:#181818;stroke-width:1.0;"/><path d="M276.0781,996.3594 Q274.2188,996.3594 273.125,994.9688 Q272.0313,993.5781 272.0313,990.5938 Q272.0313,988.0625 273.1953,986.4063 Q274.3594,984.75 276.3438,984.75 Q277.8125,984.75 278.2813,984.875 Q278.75,985.0781 278.75,985.0781 Q278.75,985.0781 278.75,985.0078 Q278.75,984.9375 279.3594,984.0156 L280.4063,987.6719 L279.0781,988.0781 Q278.6094,986.5313 277.9453,985.8672 Q277.2813,985.2031 276.2188,985.2031 Q275.8281,985.2031 275.0625,986.7344 Q274.2969,988.2656 274.2969,990.5156 Q274.2969,992.9844 274.9609,994.375 Q275.625,995.7656 276.1563,995.7656 Q277.2188,995.7656 277.9766,995 Q278.7344,994.2344 279.0781,992.5781 L280.4063,993.1719 Q280.0781,994.5781 279.1797,995.4688 Q278.2813,996.3594 276.0781,996.3594 Z " fill="#000000"/><text fill="#000000" font-family="sans-serif" font-size="14" lengthAdjust="spacing" textLength="52" x="295.5" y="997.4839">RoleInfo</text><line style="stroke:#181818;stroke-width:0.5;" x1="245.5" x2="367.5" y1="1007" y2="1007"/><rect fill="none" height="6" style="stroke:#C82930;stroke-width:1.0;" width="6" x="252.5" y="1019.0601"/><text fill="#000000" font-family="sans-serif" font-size="14" lengthAdjust="spacing" textLength="67" x="264.5" y="1027.0439">uid:Integer</text><rect fill="none" height="6" style="stroke:#C82930;stroke-width:1.0;" width="6" x="252.5" y="1038.1802"/><text fill="#000000" font-family="sans-serif" font-size="14" lengthAdjust="spacing" textLength="98" x="264.5" y="1046.1641">avatarUrl:String</text><rect fill="none" height="6" style="stroke:#C82930;stroke-width:1.0;" width="6" x="252.5" y="1057.3003"/><text fill="#000000" font-family="sans-serif" font-size="14" lengthAdjust="spacing" textLength="69" x="264.5" y="1065.2842">sex:Integer</text><rect fill="none" height="6" style="stroke:#C82930;stroke-width:1.0;" width="6" x="252.5" y="1076.4204"/><text fill="#000000" font-family="sans-serif" font-size="14" lengthAdjust="spacing" textLength="74" x="264.5" y="1084.4043">email:String</text><rect fill="none" height="6" style="stroke:#C82930;stroke-width:1.0;" width="6" x="252.5" y="1095.5405"/><text fill="#000000" font-family="sans-serif" font-size="14" lengthAdjust="spacing" textLength="88" x="264.5" y="1103.5244">whoami:String</text><rect fill="none" height="6" style="stroke:#C82930;stroke-width:1.0;" width="6" x="252.5" y="1114.6606"/><text fill="#000000" font-family="sans-serif" font-size="14" lengthAdjust="spacing" textLength="86" x="264.5" y="1122.6445">status:Integer</text><line style="stroke:#181818;stroke-width:0.5;" x1="245.5" x2="367.5" y1="1129.7207" y2="1129.7207"/></g><!--class UPKs--><g id="elem_UPKs"><rect codeLine="224" fill="#F1F1F1" height="48" id="UPKs" rx="2.5" ry="2.5" style="stroke:#181818;stroke-width:0.5;" width="66" x="4096.5" y="55"/><ellipse cx="4111.5" cy="71" fill="#ADD1B2" rx="11" ry="11" style="stroke:#181818;stroke-width:1.0;"/><path d="M4110.0781,76.3594 Q4108.2188,76.3594 4107.125,74.9688 Q4106.0313,73.5781 4106.0313,70.5938 Q4106.0313,68.0625 4107.1953,66.4063 Q4108.3594,64.75 4110.3438,64.75 Q4111.8125,64.75 4112.2813,64.875 Q4112.75,65.0781 4112.75,65.0781 Q4112.75,65.0781 4112.75,65.0078 Q4112.75,64.9375 4113.3594,64.0156 L4114.4063,67.6719 L4113.0781,68.0781 Q4112.6094,66.5313 4111.9453,65.8672 Q4111.2813,65.2031 4110.2188,65.2031 Q4109.8281,65.2031 4109.0625,66.7344 Q4108.2969,68.2656 4108.2969,70.5156 Q4108.2969,72.9844 4108.9609,74.375 Q4109.625,75.7656 4110.1563,75.7656 Q4111.2188,75.7656 4111.9766,75 Q4112.7344,74.2344 4113.0781,72.5781 L4114.4063,73.1719 Q4114.0781,74.5781 4113.1797,75.4688 Q4112.2813,76.3594 4110.0781,76.3594 Z " fill="#000000"/><text fill="#000000" font-family="sans-serif" font-size="14" lengthAdjust="spacing" textLength="34" x="4125.5" y="77.4839">UPKs</text><line style="stroke:#181818;stroke-width:0.5;" x1="4097.5" x2="4161.5" y1="87" y2="87"/><line style="stroke:#181818;stroke-width:0.5;" x1="4097.5" x2="4161.5" y1="95" y2="95"/></g><!--class ProjectFilesUPK--><g id="elem_ProjectFilesUPK"><rect codeLine="228" fill="#F1F1F1" height="124.4805" id="ProjectFilesUPK" rx="2.5" ry="2.5" style="stroke:#181818;stroke-width:0.5;" width="133" x="3980" y="268.5"/><ellipse cx="3995" cy="284.5" fill="#ADD1B2" rx="11" ry="11" style="stroke:#181818;stroke-width:1.0;"/><path d="M3993.5781,289.8594 Q3991.7188,289.8594 3990.625,288.4688 Q3989.5313,287.0781 3989.5313,284.0938 Q3989.5313,281.5625 3990.6953,279.9063 Q3991.8594,278.25 3993.8438,278.25 Q3995.3125,278.25 3995.7813,278.375 Q3996.25,278.5781 3996.25,278.5781 Q3996.25,278.5781 3996.25,278.5078 Q3996.25,278.4375 3996.8594,277.5156 L3997.9063,281.1719 L3996.5781,281.5781 Q3996.1094,280.0313 3995.4453,279.3672 Q3994.7813,278.7031 3993.7188,278.7031 Q3993.3281,278.7031 3992.5625,280.2344 Q3991.7969,281.7656 3991.7969,284.0156 Q3991.7969,286.4844 3992.4609,287.875 Q3993.125,289.2656 3993.6563,289.2656 Q3994.7188,289.2656 3995.4766,288.5 Q3996.2344,287.7344 3996.5781,286.0781 L3997.9063,286.6719 Q3997.5781,288.0781 3996.6797,288.9688 Q3995.7813,289.8594 3993.5781,289.8594 Z " fill="#000000"/><text fill="#000000" font-family="sans-serif" font-size="14" lengthAdjust="spacing" textLength="101" x="4009" y="290.9839">ProjectFilesUPK</text><line style="stroke:#181818;stroke-width:0.5;" x1="3981" x2="4112" y1="300.5" y2="300.5"/><rect fill="none" height="6" style="stroke:#C82930;stroke-width:1.0;" width="6" x="3988" y="312.5601"/><text fill="#000000" font-family="sans-serif" font-size="14" lengthAdjust="spacing" textLength="67" x="4000" y="320.5439">pid:Integer</text><rect fill="none" height="6" style="stroke:#C82930;stroke-width:1.0;" width="6" x="3988" y="331.6802"/><text fill="#000000" font-family="sans-serif" font-size="14" lengthAdjust="spacing" textLength="67" x="4000" y="339.6641">gid:Integer</text><rect fill="none" height="6" style="stroke:#C82930;stroke-width:1.0;" width="6" x="3988" y="350.8003"/><text fill="#000000" font-family="sans-serif" font-size="14" lengthAdjust="spacing" textLength="67" x="4000" y="358.7842">uid:Integer</text><rect fill="none" height="6" style="stroke:#C82930;stroke-width:1.0;" width="6" x="3988" y="369.9204"/><text fill="#000000" font-family="sans-serif" font-size="14" lengthAdjust="spacing" textLength="57" x="4000" y="377.9043">url:String</text><line style="stroke:#181818;stroke-width:0.5;" x1="3981" x2="4112" y1="384.9805" y2="384.9805"/></g><!--class RoleGroupUPK--><g id="elem_RoleGroupUPK"><rect codeLine="235" fill="#F1F1F1" height="86.2402" id="RoleGroupUPK" rx="2.5" ry="2.5" style="stroke:#181818;stroke-width:0.5;" width="128" x="4148.5" y="287.5"/><ellipse cx="4163.5" cy="303.5" fill="#ADD1B2" rx="11" ry="11" style="stroke:#181818;stroke-width:1.0;"/><path d="M4162.0781,308.8594 Q4160.2188,308.8594 4159.125,307.4688 Q4158.0313,306.0781 4158.0313,303.0938 Q4158.0313,300.5625 4159.1953,298.9063 Q4160.3594,297.25 4162.3438,297.25 Q4163.8125,297.25 4164.2813,297.375 Q4164.75,297.5781 4164.75,297.5781 Q4164.75,297.5781 4164.75,297.5078 Q4164.75,297.4375 4165.3594,296.5156 L4166.4063,300.1719 L4165.0781,300.5781 Q4164.6094,299.0313 4163.9453,298.3672 Q4163.2813,297.7031 4162.2188,297.7031 Q4161.8281,297.7031 4161.0625,299.2344 Q4160.2969,300.7656 4160.2969,303.0156 Q4160.2969,305.4844 4160.9609,306.875 Q4161.625,308.2656 4162.1563,308.2656 Q4163.2188,308.2656 4163.9766,307.5 Q4164.7344,306.7344 4165.0781,305.0781 L4166.4063,305.6719 Q4166.0781,307.0781 4165.1797,307.9688 Q4164.2813,308.8594 4162.0781,308.8594 Z " fill="#000000"/><text fill="#000000" font-family="sans-serif" font-size="14" lengthAdjust="spacing" textLength="96" x="4177.5" y="309.9839">RoleGroupUPK</text><line style="stroke:#181818;stroke-width:0.5;" x1="4149.5" x2="4275.5" y1="319.5" y2="319.5"/><rect fill="none" height="6" style="stroke:#C82930;stroke-width:1.0;" width="6" x="4156.5" y="331.5601"/><text fill="#000000" font-family="sans-serif" font-size="14" lengthAdjust="spacing" textLength="67" x="4168.5" y="339.5439">uid:Integer</text><rect fill="none" height="6" style="stroke:#C82930;stroke-width:1.0;" width="6" x="4156.5" y="350.6802"/><text fill="#000000" font-family="sans-serif" font-size="14" lengthAdjust="spacing" textLength="67" x="4168.5" y="358.6641">gid:Integer</text><line style="stroke:#181818;stroke-width:0.5;" x1="4149.5" x2="4275.5" y1="365.7402" y2="365.7402"/></g><!--class ServApplication--><g id="elem_ServApplication"><rect codeLine="243" fill="#F1F1F1" height="67.1201" id="ServApplication" rx="2.5" ry="2.5" style="stroke:#181818;stroke-width:0.5;" width="173" x="404" y="1023"/><ellipse cx="438.35" cy="1039" fill="#ADD1B2" rx="11" ry="11" style="stroke:#181818;stroke-width:1.0;"/><path d="M436.9281,1044.3594 Q435.0688,1044.3594 433.975,1042.9688 Q432.8813,1041.5781 432.8813,1038.5938 Q432.8813,1036.0625 434.0453,1034.4063 Q435.2094,1032.75 437.1938,1032.75 Q438.6625,1032.75 439.1313,1032.875 Q439.6,1033.0781 439.6,1033.0781 Q439.6,1033.0781 439.6,1033.0078 Q439.6,1032.9375 440.2094,1032.0156 L441.2563,1035.6719 L439.9281,1036.0781 Q439.4594,1034.5313 438.7953,1033.8672 Q438.1313,1033.2031 437.0688,1033.2031 Q436.6781,1033.2031 435.9125,1034.7344 Q435.1469,1036.2656 435.1469,1038.5156 Q435.1469,1040.9844 435.8109,1042.375 Q436.475,1043.7656 437.0063,1043.7656 Q438.0688,1043.7656 438.8266,1043 Q439.5844,1042.2344 439.9281,1040.5781 L441.2563,1041.1719 Q440.9281,1042.5781 440.0297,1043.4688 Q439.1313,1044.3594 436.9281,1044.3594 Z " fill="#000000"/><text fill="#000000" font-family="sans-serif" font-size="14" lengthAdjust="spacing" textLength="98" x="456.65" y="1045.4839">ServApplication</text><line style="stroke:#181818;stroke-width:0.5;" x1="405" x2="576" y1="1055" y2="1055"/><line style="stroke:#181818;stroke-width:0.5;" x1="405" x2="576" y1="1063" y2="1063"/><ellipse cx="415" cy="1078.0601" fill="#84BE84" rx="3" ry="3" style="stroke:#038048;stroke-width:1.0;"/><text fill="#000000" font-family="sans-serif" font-size="14" lengthAdjust="spacing" textLength="147" x="424" y="1083.0439">main(args:String[]):void</text></g><!--reverse link JpaRepository to MetaFileTypesDao--><g id="link_JpaRepository_MetaFileTypesDao"><path codeLine="97" d="M2758.3642,87.0962 C2526.4942,105.1362 1850.77,161.33 1762.5,211 C1723.53,232.93 1695.12,278.44 1680.56,306.24 " fill="none" id="JpaRepository-backto-MetaFileTypesDao" style="stroke:#181818;stroke-width:1.0;"/><polygon fill="none" points="2776.31,85.7,2757.8988,81.1143,2758.8296,93.0781,2776.31,85.7" style="stroke:#181818;stroke-width:1.0;"/></g><!--reverse link JpaRepository to MetaGroupTypeDao--><g id="link_JpaRepository_MetaGroupTypeDao"><path codeLine="98" d="M2758.5339,85.2846 C2570.1939,96.8646 2100.42,132.66 1960.5,211 C1920.5,233.39 1889.77,278.74 1873.77,306.39 " fill="none" id="JpaRepository-backto-MetaGroupTypeDao" style="stroke:#181818;stroke-width:1.0;"/><polygon fill="none" points="2776.5,84.18,2758.1657,79.2959,2758.9021,91.2733,2776.5,84.18" style="stroke:#181818;stroke-width:1.0;"/></g><!--reverse link JpaRepository to MetaInterTypeDao--><g id="link_JpaRepository_MetaInterTypeDao"><path codeLine="99" d="M2758.5642,89.0391 C2599.4742,105.3791 2252.12,147.03 2146.5,211 C2108.47,234.03 2079.94,278.73 2065.06,306.16 " fill="none" id="JpaRepository-backto-MetaInterTypeDao" style="stroke:#181818;stroke-width:1.0;"/><polygon fill="none" points="2776.47,87.2,2757.9512,83.0705,2759.1772,95.0077,2776.47,87.2" style="stroke:#181818;stroke-width:1.0;"/></g><!--reverse link JpaRepository to MetaPermissionsDao--><g id="link_JpaRepository_MetaPermissionsDao"><path codeLine="100" d="M2758.5519,87.2661 C2655.1119,97.7561 2484.03,126.06 2348.5,211 C2309.79,235.26 2278.17,279.13 2261.15,306.15 " fill="none" id="JpaRepository-backto-MetaPermissionsDao" style="stroke:#181818;stroke-width:1.0;"/><polygon fill="none" points="2776.46,85.45,2757.9465,81.2967,2759.1572,93.2355,2776.46,85.45" style="stroke:#181818;stroke-width:1.0;"/></g><!--reverse link JpaRepository to MetaSexDao--><g id="link_JpaRepository_MetaSexDao"><path codeLine="101" d="M2758.8414,96.583 C2681.6714,112.943 2579.05,143.83 2496.5,211 C2464.89,236.72 2442.9,279.72 2431.52,306.24 " fill="none" id="JpaRepository-backto-MetaSexDao" style="stroke:#181818;stroke-width:1.0;"/><polygon fill="none" points="2776.45,92.85,2757.597,90.7135,2760.0857,102.4526,2776.45,92.85" style="stroke:#181818;stroke-width:1.0;"/></g><!--reverse link JpaRepository to MetaStatusDao--><g id="link_JpaRepository_MetaStatusDao"><path codeLine="102" d="M2793.7888,112.0226 C2752.9888,135.6226 2706.44,166.13 2661.5,211 C2632.29,240.16 2606.67,280.96 2592.14,306.28 " fill="none" id="JpaRepository-backto-MetaStatusDao" style="stroke:#181818;stroke-width:1.0;"/><polygon fill="none" points="2809.37,103.01,2790.7846,106.8289,2796.7931,117.2164,2809.37,103.01" style="stroke:#181818;stroke-width:1.0;"/></g><!--reverse link JpaRepository to FilesDao--><g id="link_JpaRepository_FilesDao"><path codeLine="114" d="M2831.4717,119.0444 C2807.1417,166.4544 2759.93,258.5 2735.47,306.17 " fill="none" id="JpaRepository-backto-FilesDao" style="stroke:#181818;stroke-width:1.0;"/><polygon fill="none" points="2839.69,103.03,2826.1336,116.3049,2836.8098,121.7838,2839.69,103.03" style="stroke:#181818;stroke-width:1.0;"/></g><!--reverse link JpaRepository to GroupDao--><g id="link_JpaRepository_GroupDao"><path codeLine="115" d="M2851.5,121.03 C2851.5,168.44 2851.5,258.5 2851.5,306.17 " fill="none" id="JpaRepository-backto-GroupDao" style="stroke:#181818;stroke-width:1.0;"/><polygon fill="none" points="2851.5,103.03,2845.5,121.03,2857.5,121.03,2851.5,103.03" style="stroke:#181818;stroke-width:1.0;"/></g><!--reverse link JpaRepository to InterDao--><g id="link_JpaRepository_InterDao"><path codeLine="116" d="M2871.5283,119.0444 C2895.8583,166.4544 2943.07,258.5 2967.53,306.17 " fill="none" id="JpaRepository-backto-InterDao" style="stroke:#181818;stroke-width:1.0;"/><polygon fill="none" points="2863.31,103.03,2866.1902,121.7838,2876.8664,116.3049,2863.31,103.03" style="stroke:#181818;stroke-width:1.0;"/></g><!--reverse link JpaRepository to ProjectContentDao--><g id="link_JpaRepository_ProjectContentDao"><path codeLine="117" d="M2907.0762,112.2787 C2947.1562,136.3187 2993.9,167.31 3040.5,211 C3072.11,240.63 3102.02,281.3 3119.29,306.46 " fill="none" id="JpaRepository-backto-ProjectContentDao" style="stroke:#181818;stroke-width:1.0;"/><polygon fill="none" points="2891.64,103.02,2903.99,117.4241,2910.1625,107.1332,2891.64,103.02" style="stroke:#181818;stroke-width:1.0;"/></g><!--reverse link JpaRepository to ProjectDao--><g id="link_JpaRepository_ProjectDao"><path codeLine="118" d="M2944.2408,93.4782 C3026.0508,108.0582 3139.35,138.34 3227.5,211 C3258.36,236.44 3278.43,279.52 3288.59,306.14 " fill="none" id="JpaRepository-backto-ProjectDao" style="stroke:#181818;stroke-width:1.0;"/><polygon fill="none" points="2926.52,90.32,2943.1881,99.3851,2945.2935,87.5712,2926.52,90.32" style="stroke:#181818;stroke-width:1.0;"/></g><!--reverse link JpaRepository to ProjectFilesDao--><g id="link_JpaRepository_ProjectFilesDao"><path codeLine="119" d="M2944.8511,84.5255 C3051.1611,92.3755 3229.27,118.07 3364.5,211 C3399.62,235.14 3424.98,279.05 3438.16,306.11 " fill="none" id="JpaRepository-backto-ProjectFilesDao" style="stroke:#181818;stroke-width:1.0;"/><polygon fill="none" points="2926.9,83.2,2944.4093,90.5092,2945.293,78.5418,2926.9,83.2" style="stroke:#181818;stroke-width:1.0;"/></g><!--reverse link JpaRepository to RoleDao--><g id="link_JpaRepository_RoleDao"><path codeLine="120" d="M2944.5047,87.9143 C3100.7147,102.2443 3436.18,140.1 3531.5,211 C3563.17,234.56 3580.12,279.08 3587.93,306.34 " fill="none" id="JpaRepository-backto-RoleDao" style="stroke:#181818;stroke-width:1.0;"/><polygon fill="none" points="2926.58,86.27,2943.9566,93.8892,2945.0528,81.9394,2926.58,86.27" style="stroke:#181818;stroke-width:1.0;"/></g><!--reverse link JpaRepository to RoleGroupDao--><g id="link_JpaRepository_RoleGroupDao"><path codeLine="121" d="M2944.5263,85.9938 C3120.1063,98.2538 3533.89,134.3 3654.5,211 C3690.25,233.73 3714.24,278.53 3726.32,306.06 " fill="none" id="JpaRepository-backto-RoleGroupDao" style="stroke:#181818;stroke-width:1.0;"/><polygon fill="none" points="2926.57,84.74,2944.1083,91.9792,2944.9442,80.0084,2926.57,84.74" style="stroke:#181818;stroke-width:1.0;"/></g><!--reverse link JpaRepository to RoleInfoDao--><g id="link_JpaRepository_RoleInfoDao"><path codeLine="122" d="M2944.81,82.639 C3145.44,89.319 3669.56,115.4 3816.5,211 C3851.13,233.53 3872.07,278.84 3882.16,306.44 " fill="none" id="JpaRepository-backto-RoleInfoDao" style="stroke:#181818;stroke-width:1.0;"/><polygon fill="none" points="2926.82,82.04,2944.6104,88.6357,2945.0097,76.6423,2926.82,82.04" style="stroke:#181818;stroke-width:1.0;"/></g><!--link UPKs to ProjectFilesUPK--><g id="link_UPKs_ProjectFilesUPK"><path codeLine="240" d="M4121.84,103.03 C4109.46,140.24 4084.65,214.83 4066.88,268.25 " fill="none" id="UPKs-ProjectFilesUPK" style="stroke:#181818;stroke-width:1.0;"/></g><!--link UPKs to RoleGroupUPK--><g id="link_UPKs_RoleGroupUPK"><path codeLine="241" d="M4137.16,103.03 C4151.09,144.89 4180.74,234.03 4198.41,287.14 " fill="none" id="UPKs-RoleGroupUPK" style="stroke:#181818;stroke-width:1.0;"/></g><!--SRC=[dLXBSzGu4BxFh_2DSS6GMhYvKbH1KcIpB32LnscBWs8h7craIol9WHJmtrUIRLcjnqoIEOojVkdxMkssv1SxfRYiZeuuHRqQElgwPjrHJP6KcuQWLg3knMfbnyKPPJU8dZ0XJrX_IzhYvwhGlvT5hKKV2LLOhClgn0rMlsTFFSQdx7jF6MgqhnACKYoSVpEfZDdwLlzzGHskBfKWVVkg45XorajS_QcXNc9nJx6wc6HbTSz80oUIqGoRmWILnfVKkFhe3JmzHsetJJhXQh5wJwdcz3UHwjYwlPjK0pU0r-F5QAhF0rM48w7Cg8I1Pe9hETnS2pfJUmgpCy46dc3M6ldCxCmR93bOWva3qTC8jROHHjTolCoeiSQ3eHxG6dY3GeCnW8Dztkj2IC0cHZx3FlS6ITZM881j8uokvNY1i84-1JiHmC7U2lOlhfK1ZdkLmC-1mKnacv8c6K7BW1eC7aGjWp5aVS0rbOUdpPPAKJetGL8UaGq_3Ng15UvcPmSZM6DWabpaP92GHAvjS4yTq8cQI8OJw1enCQikmIXFSJ8-n3CLqp6-O1GdcEeXdXbUBFUUzho_PRw5DtvKAngZ-68R9c7NOOMi-Eg1urF4gi-189bl4oni4IOfHbxQ_qHYHsKseP6lmFyDMEgYR_1wX-HsntfSW20WqRcc_RXCf1Yc6hY3EhLWTviXlAULvqC1NcRjCxGEbKcAbB79SJAwqjrb68r6Uma5SJGTs_zlKOsBlpYwm9n9efXuEBvwTNxwpbURyZDFaQa-QSeFga1bGfLzgwHLMomw8YNHx_fOUOb_98GAgS4Qhm3WulZNPXE3pDW0j1aR03jZ4-3FM4r4Sjg5qKBLzYl8tcA68WiHYk2BAgbB2XCJcZA99GaOSptbLiN5JkXSk8JEqKleOfvve_tQVUZc56HK-y23f8nD0rJdiWbixBwhdRPkcq9fTTH8GTK-mzTLypDylIf_XhUk_kTusQVYYOvsAPtFuCuOaw1V3bJUYSSa9GXEv5T1Mj9N7vXUHTJF6w7WRBIP-kiLqN5FzKrmK5cE9n5yEN0ipYAntJnyYM2syyA7IOW2s8VI3m3F80vHnlFAosecu2nk1gd40vJM0eDq74ZIz00k6yqu7vuaSopPuws8ec7Awcc33t37sP1_D0trISWteU2j4oGtqWxN7NwGrVNsatpjgxLW3gHG6wAKDHCuPcvwobBU4MXkDc91oPFwBYvxnUvm3qKtcBA-JKy9YtdXutGB6UvQHJgKwOXx6A1xf92u3XzSYNy4XhX3933wlcEe8u6ZxI8n50DVmqYld5O-iYHpDBpE4oVI3pySgdWBD7XNcMpFSh04qqnce_cUSqfgfFH2k0zCEcNz6ebMJjZ- -UO-h_mF]--></g></svg>